<?xml version="1.0" encoding="UTF-8"?>
<svg width="272px" height="57px" viewBox="0 0 272 57" version="1.1" xmlns="http://www.w3.org/2000/svg" xmlns:xlink="http://www.w3.org/1999/xlink">
    <!-- Generator: Sketch 63.1 (92452) - https://sketch.com -->
    <title>Group</title>
    <desc>Created with Sketch.</desc>
    <g id="Page-1" stroke="none" stroke-width="1" fill="none" fill-rule="evenodd">
        <g id="Group" fill-rule="nonzero">
            <path d="M55.6,0.5 L0.5,0.5 L0.5,55.6 L55.6,55.6 L55.6,0.5 Z" id="Path" stroke="#D4D4D4"></path>
            <path d="M43.8,14.8 C40.3,16.8 39.3,17 35.5,19.3 C37.7,16.9 38.5,15.9 39.8,13.9 C36.3,14.1 31.3,14.5 27.7,15.3 C30.8,13.6 37.1,11.8 40.3,11.3 C39.5,10.2 33.4,6.9 31.8,6.3 C36.7,6.7 42.6,8.5 45.5,10.3 C46.6,9.9 47.8,9.9 49.9,9.7 C49.4,10.6 49.3,11.2 47.3,12.5 C47.9,14 46.5,22.5 45.4,24.7 C45.4,21.2 45.1,16.7 43.8,14.8 Z M18.4,45.1 C16.4,44.4 15,43.5 13.4,42 C13.9,40.7 14.4,39.7 15.3,38.4 C13.7,38.6 12.5,38.8 11.1,39.1 C10,37.1 9.5,35.2 8.9,32.5 C8.6,35.3 8.5,37.3 8.9,39.6 C7.6,40 6.7,40.3 5.7,40.7 C7.2,41.6 8.4,42.3 10,43.1 C10.9,45 11.8,46.3 13.3,47.7 C13,46.5 12.9,45.5 13,44.2 C14.7,44.8 16.3,45 18.4,45.1 Z M23.6,17 C23,17.8 22.3,19.3 22.1,20 C27.2,20.7 31.3,23.3 31.3,23.3 C26.8,22.5 24.5,22.6 22.8,22.8 C21.1,23 20.8,23.2 20.8,23.2 C19.6,25.9 18.9,30.4 18.9,30.4 C18.1,28.4 16.9,24.5 16.9,24.5 C14.6,25.7 9.4,30.6 9.4,30.6 C12.3,24.9 15.2,22.3 15.2,22.3 C14.2,21.3 11.6,20.8 9.7,20.7 C10.7,20.3 13.2,19.8 15.2,19.7 C17.2,19.6 18.4,19.8 18.4,19.8 C20,18.3 22.7,17.1 23.6,17 Z M29,41.6 C28.1,42.8 27.3,43.8 26.3,44.9 C24.6,45.4 23.2,45.6 21.5,45.6 C22.5,46.1 23.5,46.5 24.6,46.7 C23.5,47.7 22.6,48.4 21.6,49 C23.4,48.6 25.7,47.8 27.4,46.8 C28.3,46.8 29.1,46.8 29.8,46.7 C29.6,46.2 29.5,45.8 29.4,45.1 C31,43.8 32.2,42.7 33.5,41.4 C32.1,42.4 30.8,43.1 29.2,43.9 C29.1,43.1 29.1,42.4 29,41.6 Z" id="Shape" fill="#D4D4D4"></path>
            <path d="M70.2,18.5 C70.3,20.5 70.4,25.7 70.4,27.6 C70.4,29.3 70.4,35.1 70.1,37.6 L70.1,37.8 L79.2,37.8 C83.7,37.8 88.4,36.4 88.4,32.5 C88.4,30 86.6,28.2 83.3,27.2 C85.8,26.5 87.4,24.8 87.4,22.9 C87.4,19.7 83.7,18.5 80.2,18.4 L70.2,18.4 L70.2,18.5 L70.2,18.5 Z M77.2,20.5 C81,20.5 82.4,21.3 82.4,23.4 C82.4,24 82.2,24.5 81.9,24.9 C81.2,25.8 79.8,26.2 78,26.1 L77.9,26.1 L76.8,28.9 L77.9,28.9 C80,28.8 81.8,29.5 82.7,30.6 C83.1,31.1 83.3,31.7 83.3,32.4 C83.3,34.5 81.4,35.7 77.7,35.7 L75.4,35.7 C75.3,32.8 75.2,28.9 75.2,27.8 C75.2,26.4 75.3,23.4 75.4,20.8 C75.9,20.5 76.6,20.5 77.2,20.5 L77.2,20.5 Z M109.3,18.3 L104.9,18.3 L105.1,23.2 C105.2,25.6 105.3,28.1 105.4,30.6 C105.1,29.8 104.8,29.4 103.5,27.5 C103.5,27.4 98.9,20.4 97.3,18.4 L92.2,18.4 L92.2,18.6 C92.4,20.6 92.4,25.8 92.4,27.7 C92.4,29.4 92.4,35.2 92.2,37.7 L92.2,37.9 L96.8,37.9 L96.8,37.7 C96.5,32.9 96.5,28.1 96.5,23.5 C96.7,24.1 96.9,24.5 97.6,25.6 C97.7,25.7 105.5,37.2 105.9,37.8 L105.9,37.9 L109.6,37.9 L109.6,37.7 C109.3,35.2 109.3,29.4 109.3,27.7 C109.3,25.8 109.4,20.7 109.5,18.6 L109.6,18.4 L109.3,18.4 L109.3,18.3 Z M114.6,18.5 C114.8,20.5 114.8,25.7 114.8,27.6 C114.8,29.3 114.8,35.1 114.5,37.6 L114.5,37.8 L119.9,37.8 L119.9,37.6 C119.7,35.8 119.6,32.4 119.6,29.7 C119.9,29.7 120.6,29.8 120.6,29.8 L121.4,29.8 C128.5,29.8 132,27.9 132,23.9 C132,19.4 127.1,18.3 123.1,18.3 L114.5,18.3 L114.5,18.5 L114.6,18.5 Z M121.3,20.7 C123.8,20.7 125.6,21.2 126.5,22.2 C126.9,22.7 127.1,23.3 127.1,24 C127.1,26.8 123.9,27.4 121.3,27.4 L120.2,27.3 L119.8,27.3 L119.8,24.8 C119.8,23.6 119.8,22.1 119.9,20.8 C120.1,20.7 120.7,20.7 121.3,20.7 L121.3,20.7 Z M142.4,18.5 C142.6,20.5 142.7,25.7 142.7,27.6 C142.7,29.3 142.7,35.1 142.4,37.6 L142.4,37.8 L147.8,37.8 L147.8,37.6 C147.6,35.8 147.5,32.4 147.5,29.7 C147.8,29.7 148.5,29.8 148.5,29.8 L149.3,29.8 C156.4,29.8 159.9,27.9 159.9,23.9 C159.9,19.4 155,18.3 150.9,18.3 L142.4,18.3 L142.4,18.5 Z M149.1,20.7 C151.6,20.7 153.4,21.2 154.3,22.2 C154.7,22.7 154.9,23.3 154.9,24 C154.9,26.8 151.7,27.4 149.1,27.4 L148,27.3 L147.6,27.3 L147.6,24.8 C147.6,23.6 147.6,22.1 147.7,20.8 C147.9,20.7 148.5,20.7 149.1,20.7 L149.1,20.7 Z M167.2,18.3 L167.1,18.4 C166.1,21.2 159.6,35.4 158.6,37.6 L158.5,37.8 L163.1,37.8 L163.1,37.7 C163.5,36.4 164.1,34.9 164.6,33.2 C164.8,33.2 168.5,33.1 168.5,33.1 L172.4,33.1 C173.2,35.2 173.9,36.8 174.1,37.6 L174.2,37.7 L179.6,37.7 L170.9,18.2 L167.2,18.2 L167.2,18.3 Z M168.5,24.1 C168.9,25 170,27.6 171.3,30.7 L168.5,30.7 L165.6,30.7 C166.7,28.2 167.7,26 168.5,24.1 Z M181.7,18.5 C181.9,20.5 181.9,25.7 181.9,27.6 C181.9,29.3 181.9,35.1 181.6,37.6 L181.6,37.8 L187.1,37.8 L187.1,37.6 C186.8,35.1 186.8,29.3 186.8,27.6 C186.8,26.2 186.8,23.2 187,20.8 C187.4,20.8 188,20.7 188.5,20.7 C191,20.7 192.8,21.2 193.6,22.2 C194,22.7 194.2,23.3 194.2,24 C194.2,26.3 192.1,27.4 190.1,27.5 C189.4,27.5 189,27.4 189,27.4 L188.6,27.3 L188.8,27.7 C190.7,30.5 193.6,35.4 194.8,37.7 L194.8,37.8 L200.6,37.8 L200.5,37.5 C200.3,37.2 196.5,31.6 194.9,29.2 L194.8,29.1 C197.8,28.2 199.2,26.5 199.2,24 C199.2,19.5 194.3,18.4 190.2,18.4 L181.7,18.4 L181.7,18.5 L181.7,18.5 Z M208.4,18.3 L203.2,18.3 L203.2,18.5 C203.3,20.5 203.4,25.7 203.4,27.6 C203.4,29.3 203.4,35.1 203.1,37.6 L203.1,37.8 L208.5,37.8 L208.5,37.6 C208.3,35.1 208.2,29.3 208.2,27.6 C208.2,25.7 208.3,20.6 208.5,18.5 L208.5,18.3 L208.4,18.3 Z M213.4,18.5 C213.6,20.5 213.7,25.7 213.7,27.6 C213.7,29.3 213.7,35.1 213.4,37.6 L213.4,37.8 L222.5,37.8 C226.9,37.8 231.7,36.4 231.7,32.5 C231.7,30 229.9,28.2 226.5,27.2 C229,26.5 230.7,24.8 230.7,22.9 C230.7,19.7 227,18.5 223.5,18.4 L213.5,18.4 L213.4,18.5 L213.4,18.5 Z M220.4,20.5 C224.2,20.5 225.6,21.3 225.6,23.4 C225.6,24 225.4,24.5 225.1,24.9 C224.4,25.8 222.9,26.2 221.2,26.1 L221.1,26.1 L220.1,28.9 L221.1,28.9 C223.2,28.8 225,29.5 225.9,30.6 C226.4,31.1 226.6,31.7 226.6,32.4 C226.6,34.5 224.7,35.7 220.9,35.7 L218.6,35.7 C218.4,32.8 218.4,28.9 218.4,27.8 C218.4,26.4 218.5,23.4 218.6,20.8 C219.1,20.5 219.8,20.5 220.4,20.5 L220.4,20.5 Z M245,18.3 L241.4,18.3 L241.4,18.4 C240.3,21.4 233.4,36.3 232.9,37.5 L232.8,37.8 L237.4,37.8 L237.4,37.7 C237.8,36.4 238.3,34.9 238.9,33.2 C239,33.2 242.7,33.1 242.7,33.1 L246.6,33.1 C247.4,35.2 248.1,36.8 248.3,37.6 L248.4,37.7 L253.8,37.7 L245.2,18.2 L245,18.2 L245,18.3 Z M242.7,24.1 C243.1,25 244.2,27.6 245.5,30.7 L242.7,30.7 C242.7,30.7 240.2,30.6 239.8,30.6 C240.9,28.2 241.9,26 242.7,24.1 Z M255.2,23.4 C255.2,26.8 258.6,28.2 261.7,29.5 C264.1,30.4 266.5,31.4 266.5,33.1 C266.5,33.6 266.4,34 266.1,34.3 C265.5,35 264.4,35.3 262.6,35.2 C260.8,35.1 258.7,34.6 256.5,33.5 L255.6,33.1 L255.6,37.4 L256.2,37.6 L256.6,37.7 C257.7,38 259.9,38.5 262.1,38.5 C267.8,38.5 271.2,36.2 271.2,32.4 C271.2,28.9 267.7,27.5 264.6,26.2 C262.3,25.3 259.9,24.3 259.9,22.8 C259.9,22.4 259.9,21.1 262.9,21.1 C265.1,21.1 267.2,22 268.4,22.5 L269.5,23 L269.5,18.8 L268.4,18.6 C267.3,18.4 265.4,18 263.5,18 C258.5,17.6 255.2,20 255.2,23.4 Z" id="Shape" fill="#D4D4D4"></path>
        </g>
    </g>
</svg>