<?xml version="1.0" encoding="utf-8"?>
<!-- Generator: Adobe Illustrator 25.2.1, SVG Export Plug-In . SVG Version: 6.00 Build 0)  -->
<svg version="1.1" id="Layer_1" xmlns="http://www.w3.org/2000/svg" xmlns:xlink="http://www.w3.org/1999/xlink" x="0px" y="0px"
	 viewBox="0 0 1000 1000" style="enable-background:new 0 0 1000 1000;" xml:space="preserve">
<style type="text/css">
	.st0{fill:#FFFFFF;}
	.st1{fill:#F24C4C;}
</style>
<g id="Background">
</g>
<g id="Objects">
	<g>
		<g>
			<g>
				<path class="st0" d="M571.6,141.1c16.5,23.2,29.9,48.8,39.5,76.2c12,1.6,23.8,3.7,35.4,6.5c1.9,0.5,3.9,1,5.8,1.4
					c0.5,0.1,1,0.2,1.4,0.4c2.5,0.7,4.9,1.3,7.4,2.1c0.1,0,0.1,0,0.1,0.1c2.4,0.7,4.8,1.3,7.1,2.1c2.1,0.6,4,1.3,6.1,1.9
					c2.1,0.7,4.2,1.4,6.2,2.1c1.9,0.7,3.9,1.3,5.8,2.1c1.9,0.7,3.8,1.4,5.7,2.2c11.2,4.3,22,9.2,32.7,14.7c2.5,1.3,5.1,2.6,7.5,4
					c4.2,2.3,8.4,4.6,12.5,7.1c1.8,1,3.5,2.1,5.3,3.2c0.8,0.5,1.6,1,2.5,1.5c1.9,1.1,3.7,2.4,5.5,3.6c1.8,1.1,3.5,2.4,5.3,3.5
					c20.2,13.9,38.9,29.8,55.8,47.5c2,2,3.9,4,5.7,6.2c1.6,1.7,3.1,3.4,4.6,5.1c2.5,2.8,4.9,5.7,7.2,8.6c1.4,1.7,2.8,3.4,4.2,5.2
					c1.9,2.4,3.7,4.8,5.5,7.1c1.7,2.2,3.4,4.5,4.9,6.8c1.7,2.3,3.3,4.6,4.8,6.9c3.1,4.6,6.2,9.4,9.1,14.2c1.5,2.4,3,4.8,4.3,7.3
					c1.4,2.5,2.8,4.9,4.2,7.4c2.9,5.4,5.7,10.8,8.3,16.3c1.1,2.2,2.1,4.3,3.1,6.6c1,2.2,1.9,4.3,2.9,6.6c0.8,1.9,1.7,3.9,2.5,5.9
					c0.7,1.8,1.4,3.6,2.2,5.4c1.8,4.6,3.5,9.2,5.1,13.9c1,2.7,1.9,5.4,2.7,8.2c0.1,0.1,0.1,0.2,0.1,0.4c0.8,2.7,1.6,5.3,2.4,7.9
					c2.2,7.5,4,15.2,5.7,22.9c0.4,1.9,0.8,3.9,1.2,5.9c0.2,1.1,0.4,2.2,0.7,3.4c0.2,1.5,0.5,3,0.8,4.5c0.4,2.2,0.7,4.3,1,6.5
					c0.4,2.2,0.7,4.3,1,6.6c0.1,1,0.2,1.9,0.4,3c0.2,1.6,0.4,3.3,0.5,4.9c0.2,1.6,0.4,3.1,0.4,4.6c0.2,2.4,0.5,4.8,0.7,7.1
					c0.2,2.8,0.4,5.6,0.5,8.5c0.2,3,0.3,6,0.4,9c0.1,3,0.1,6,0.1,9c0,193.3-157.2,350.5-350.5,350.5c-3,0-6-0.1-9-0.1
					c-3-0.1-6-0.2-9-0.4c-3-0.1-5.9-0.3-8.8-0.5h-0.4c-2.8-0.2-5.5-0.5-8.2-0.7c-2.4-0.2-4.7-0.5-7.1-0.8c-1.4-0.2-2.9-0.4-4.3-0.5
					c-2.1-0.2-4.2-0.5-6.2-0.9c-0.2,0-0.4-0.1-0.5-0.1c-2.1-0.3-4.2-0.7-6.2-1c-1.8-0.3-3.5-0.6-5.3-1c-2.5-0.5-5.1-1-7.6-1.5
					c-13.7-2.9-27.1-6.6-40.2-11c-2.6-0.8-5.1-1.8-7.7-2.7c-2.5-0.9-4.9-1.8-7.5-2.8c-3.4-1.3-6.7-2.7-10-4.2
					c-2.1-0.8-4.2-1.8-6.3-2.8c-2.2-1-4.5-2.1-6.8-3.1c-2.8-1.4-5.7-2.8-8.6-4.2c-2.4-1.2-4.6-2.4-7-3.7c-2.7-1.4-5.3-3-7.9-4.5
					c-2.5-1.4-4.9-2.8-7.3-4.3c-0.1-0.1-0.1-0.1-0.2-0.1c-4.5-2.7-8.8-5.5-13.1-8.4c-0.4-0.2-0.7-0.5-1-0.7
					c-2.4-1.6-4.6-3.1-6.9-4.8c-2.3-1.6-4.6-3.3-6.8-4.9c-2.2-1.6-4.5-3.4-6.7-5.1c-1.8-1.4-3.6-2.8-5.4-4.3
					c-2.8-2.3-5.7-4.6-8.4-7.1c-1.9-1.6-3.7-3.3-5.5-4.9c0,0,0-0.1-0.1-0.1c-2.1-1.9-4.2-3.7-6.2-5.7c-2.1-1.9-4-3.9-6-5.9
					c-3.9-3.9-7.7-7.8-11.3-11.9c-1.9-2.2-3.9-4.3-5.9-6.6c-3.7-4.2-7.2-8.5-10.6-12.8c-2.1-2.7-4.2-5.4-6.2-8.1
					c-1.2-1.6-2.4-3.2-3.5-4.8c-0.4-0.5-0.8-1-1.1-1.6c-1.4-2-2.8-4-4.2-6.1c-1.4-2-2.7-4-4-6c-1.9-2.8-3.7-5.7-5.4-8.6
					c-2.8-4.6-5.6-9.4-8.1-14.2c-5.1-9.3-9.7-18.8-13.9-28.7c-1-2.2-1.9-4.5-2.8-6.8c-0.1-0.1-0.1-0.2-0.1-0.4
					c-0.7-1.8-1.4-3.4-2.1-5.1c-0.6-1.6-1.2-3.1-1.8-4.8c-0.6-1.6-1.2-3.3-1.8-5c-0.8-2.4-1.7-4.8-2.5-7.2c-0.8-2.4-1.6-4.8-2.3-7.3
					c-0.1-0.2-0.2-0.5-0.2-0.7c-0.7-2.4-1.4-4.8-2.1-7.1c-0.7-2.5-1.4-5.1-2.1-7.7c-1.9-7.7-3.7-15.5-5.1-23.4
					c-0.5-2.7-0.9-5.3-1.3-8c-0.4-2.7-0.8-5.3-1.1-8c-27.5-9.5-53.1-22.9-76.4-39.4c4,230.7,192.2,416.4,423.7,416.4
					c234.1,0,423.9-189.8,423.9-423.8C989.2,333,802.8,144.5,571.6,141.1z M216.4,531.7c0.2-2.6,0.5-5.2,0.8-7.8
					c0.3-2.6,0.7-5.2,1-7.7c0.4-2.6,0.7-5.1,1.1-7.7c0.4-2.5,0.8-5.1,1.3-7.6c1.9-10.1,4.2-20.1,6.9-29.9c0.7-2.4,1.4-4.9,2.1-7.3
					v-0.1c0.5-1.9,1.1-3.7,1.8-5.7c0.2-0.8,0.5-1.6,0.8-2.4c0.7-2.1,1.4-4.2,2.2-6.3c0.6-1.9,1.3-3.7,2-5.5c0.4-1.1,0.8-2.3,1.3-3.4
					c1.6-4.1,3.2-8.1,4.9-12.1c2-4.7,4-9.4,6.3-13.9c1-2.2,2.1-4.3,3.2-6.5c0.7-1.4,1.4-2.8,2.1-4.1c0.8-1.6,1.7-3.3,2.5-4.9
					c0.3-0.5,0.6-1.1,1-1.7c1.1-2.2,2.4-4.3,3.6-6.5c1.1-1.9,2.2-3.9,3.4-5.8c1-1.7,2.1-3.3,3.1-4.9c1-1.5,1.9-3,2.9-4.5
					c4-6.3,8.3-12.4,12.7-18.3c1.4-2.1,3-4,4.5-6c1.1-1.5,2.4-3,3.6-4.5c3.5-4.4,7.1-8.8,10.9-13c1.5-1.8,3.1-3.5,4.6-5.3
					c3.3-3.7,6.8-7.2,10.3-10.7c1.4-1.4,2.8-2.8,4.3-4.2c2.2-2.2,4.5-4.3,6.8-6.5c1.7-1.6,3.4-3.1,5.1-4.6c3.1-2.8,6.2-5.4,9.4-8
					c1.6-1.3,3.3-2.7,4.9-3.9c7.1-5.6,14.3-11,21.8-16c2.1-1.4,4.3-2.9,6.5-4.3c1.8-1.1,3.4-2.2,5.2-3.3c1.3-0.8,2.7-1.6,4-2.4
					c1.9-1.2,3.9-2.4,5.9-3.4c2.5-1.4,4.9-2.8,7.4-4.2c2.5-1.4,5-2.7,7.5-4c2.5-1.3,5.1-2.6,7.6-3.8c0.2-0.1,0.3-0.1,0.4-0.2
					c4.5-2.2,9.1-4.2,13.7-6.2c3.4-1.4,6.9-2.9,10.4-4.2c2.3-1,4.6-1.8,6.9-2.7c2.1-0.8,4.1-1.5,6.2-2.2c1-0.4,2.1-0.7,3.2-1.1
					c2.3-0.7,4.6-1.5,6.9-2.2c2.7-0.8,5.5-1.7,8.3-2.5c2.8-0.8,5.6-1.6,8.3-2.3c2.5-0.6,4.9-1.3,7.4-1.8c1.9-0.4,3.7-0.8,5.6-1.3
					c0.8-0.2,1.7-0.4,2.5-0.5c1.4-0.2,2.8-0.5,4.3-0.8c2.5-0.5,5-1,7.5-1.4c1.8-0.3,3.6-0.6,5.4-0.8c1.9-0.4,3.8-0.6,5.7-0.8
					c4.9-0.7,9.9-1.3,14.8-1.8c-12.3-25.1-29.1-47.7-49.2-66.9C314,182.7,182.2,315,149.2,482.6
					C168.6,502.7,191.3,519.4,216.4,531.7z"/>
			</g>
			<g>
				<path class="st1" d="M623.4,263.1c-18.8-3.6-38.2-5.6-58.1-5.6c-6.2,0-12.3,0.2-18.3,0.5c5.4,19.7,8.3,40.4,8.3,61.8
					c0,129.9-105.7,235.6-235.6,235.6c-21.1,0-41.6-2.8-61.1-8.1h-0.1c-0.3,5.8-0.5,11.6-0.5,17.4c0,20.2,1.9,39.9,5.7,59
					c18.1,3.3,36.8,5.1,56,5.1c170.6,0,309-138.3,309-309C628.6,300.5,626.8,281.5,623.4,263.1z M319.6,11
					C149.1,11,10.7,149.3,10.7,320c0,84.3,33.7,160.7,88.5,216.4c2-33.7,7.6-66.7,16.5-98.5c-20.1-34.7-31.6-75-31.6-117.9
					c0-129.9,105.6-235.6,235.5-235.6c42.7,0,82.8,11.4,117.3,31.3c31.9-9.1,64.8-14.7,98.4-16.8C479.8,44.5,403.6,11,319.6,11z"/>
			</g>
		</g>
	</g>
</g>
</svg>
