<?xml version="1.0" encoding="utf-8"?>
<!-- Generator: Adobe Illustrator 25.2.1, SVG Export Plug-In . SVG Version: 6.00 Build 0)  -->
<svg version="1.1" id="Layer_1" xmlns="http://www.w3.org/2000/svg" xmlns:xlink="http://www.w3.org/1999/xlink" x="0px" y="0px"
	 viewBox="0 0 1366 768" style="enable-background:new 0 0 1366 768;" xml:space="preserve">
<style type="text/css">
	.st0{fill:#FFFFFF;}
	.st1{fill:#F24C4C;}
	.st2{font-family:'TrajanPro3-Regular';}
	.st3{font-size:245.3686px;}
</style>
<g>
	<g id="Objects">
		<g>
			<g>
				<g>
					<path class="st0" d="M216.4,237.7c6.1,8.5,10.9,17.9,14.5,27.9c4.4,0.6,8.7,1.4,13,2.4c0.7,0.2,1.4,0.4,2.1,0.5
						c0.2,0,0.4,0.1,0.5,0.1c0.9,0.2,1.8,0.5,2.7,0.8c0,0,0,0,0,0c0.9,0.2,1.7,0.5,2.6,0.8c0.8,0.2,1.5,0.5,2.2,0.7
						c0.8,0.2,1.5,0.5,2.3,0.8c0.7,0.2,1.4,0.5,2.1,0.8c0.7,0.2,1.4,0.5,2.1,0.8c4.1,1.6,8.1,3.4,12,5.4c0.9,0.5,1.9,1,2.7,1.5
						c1.5,0.8,3.1,1.7,4.6,2.6c0.6,0.4,1.3,0.8,1.9,1.2c0.3,0.2,0.6,0.4,0.9,0.6c0.7,0.4,1.3,0.9,2,1.3c0.6,0.4,1.3,0.9,1.9,1.3
						c7.4,5.1,14.3,10.9,20.4,17.4c0.7,0.7,1.4,1.5,2.1,2.3c0.6,0.6,1.1,1.2,1.7,1.9c0.9,1,1.8,2.1,2.6,3.1c0.5,0.6,1,1.2,1.5,1.9
						c0.7,0.9,1.3,1.7,2,2.6c0.6,0.8,1.2,1.7,1.8,2.5c0.6,0.8,1.2,1.7,1.8,2.5c1.1,1.7,2.3,3.4,3.3,5.2c0.6,0.9,1.1,1.8,1.6,2.7
						c0.5,0.9,1,1.8,1.5,2.7c1.1,2,2.1,4,3,6c0.4,0.8,0.8,1.6,1.1,2.4c0.4,0.8,0.7,1.6,1.1,2.4c0.3,0.7,0.6,1.4,0.9,2.1
						c0.3,0.7,0.5,1.3,0.8,2c0.6,1.7,1.3,3.4,1.9,5.1c0.4,1,0.7,2,1,3c0,0,0,0.1,0,0.1c0.3,1,0.6,1.9,0.9,2.9
						c0.8,2.8,1.5,5.6,2.1,8.4c0.2,0.7,0.3,1.4,0.4,2.2c0.1,0.4,0.2,0.8,0.2,1.2c0.1,0.6,0.2,1.1,0.3,1.7c0.1,0.8,0.3,1.6,0.4,2.4
						c0.1,0.8,0.2,1.6,0.4,2.4c0,0.4,0.1,0.7,0.1,1.1c0.1,0.6,0.1,1.2,0.2,1.8c0.1,0.6,0.1,1.1,0.2,1.7c0.1,0.9,0.2,1.7,0.2,2.6
						c0.1,1,0.1,2.1,0.2,3.1c0.1,1.1,0.1,2.2,0.1,3.3s0,2.2,0,3.3c0,70.8-57.6,128.4-128.4,128.4c-1.1,0-2.2,0-3.3,0
						c-1.1,0-2.2-0.1-3.3-0.1c-1.1,0-2.1-0.1-3.2-0.2h-0.1c-1-0.1-2-0.2-3-0.3c-0.9-0.1-1.7-0.2-2.6-0.3c-0.5-0.1-1.1-0.1-1.6-0.2
						c-0.8-0.1-1.5-0.2-2.3-0.3c-0.1,0-0.1,0-0.2,0c-0.8-0.1-1.5-0.2-2.3-0.4c-0.6-0.1-1.3-0.2-1.9-0.4c-0.9-0.2-1.9-0.4-2.8-0.6
						c-5-1.1-9.9-2.4-14.7-4c-1-0.3-1.9-0.6-2.8-1c-0.9-0.3-1.8-0.7-2.7-1c-1.2-0.5-2.5-1-3.7-1.5c-0.8-0.3-1.5-0.6-2.3-1
						c-0.8-0.4-1.7-0.8-2.5-1.1c-1-0.5-2.1-1-3.1-1.5c-0.9-0.4-1.7-0.9-2.6-1.3c-1-0.5-1.9-1.1-2.9-1.6c-0.9-0.5-1.8-1-2.7-1.6
						c0,0,0,0-0.1,0c-1.6-1-3.2-2-4.8-3.1c-0.1-0.1-0.2-0.2-0.4-0.2c-0.9-0.6-1.7-1.1-2.5-1.7c-0.8-0.6-1.7-1.2-2.5-1.8
						c-0.8-0.6-1.6-1.2-2.5-1.9c-0.7-0.5-1.3-1-2-1.6c-1-0.8-2.1-1.7-3.1-2.6c-0.7-0.6-1.3-1.2-2-1.8c0,0,0,0,0,0
						c-0.8-0.7-1.5-1.4-2.3-2.1c-0.8-0.7-1.5-1.4-2.2-2.1c-1.4-1.4-2.8-2.9-4.2-4.4c-0.7-0.8-1.4-1.6-2.1-2.4
						c-1.3-1.5-2.6-3.1-3.9-4.7c-0.8-1-1.5-2-2.3-3c-0.4-0.6-0.9-1.2-1.3-1.8c-0.1-0.2-0.3-0.4-0.4-0.6c-0.5-0.7-1-1.5-1.5-2.2
						c-0.5-0.7-1-1.5-1.5-2.2c-0.7-1-1.3-2.1-2-3.2c-1-1.7-2-3.4-3-5.2c-1.9-3.4-3.6-6.9-5.1-10.5c-0.4-0.8-0.7-1.7-1-2.5
						c0,0,0-0.1,0-0.1c-0.2-0.6-0.5-1.2-0.8-1.9c-0.2-0.6-0.4-1.1-0.7-1.7c-0.2-0.6-0.4-1.2-0.6-1.8c-0.3-0.9-0.6-1.7-0.9-2.6
						c-0.3-0.9-0.6-1.8-0.8-2.7c0-0.1-0.1-0.2-0.1-0.3c-0.3-0.9-0.5-1.7-0.8-2.6c-0.3-0.9-0.5-1.9-0.8-2.8c-0.7-2.8-1.3-5.7-1.9-8.6
						c-0.2-1-0.3-1.9-0.5-2.9c-0.2-1-0.3-1.9-0.4-2.9c-10.1-3.5-19.5-8.4-28-14.4c1.5,84.5,70.4,152.5,155.2,152.5
						c85.7,0,155.2-69.5,155.2-155.2C369.3,308,301,238.9,216.4,237.7z M86.3,380.7c0.1-1,0.2-1.9,0.3-2.9c0.1-1,0.2-1.9,0.4-2.8
						c0.1-1,0.3-1.9,0.4-2.8c0.1-0.9,0.3-1.9,0.5-2.8c0.7-3.7,1.5-7.4,2.5-10.9c0.2-0.9,0.5-1.8,0.8-2.7v0c0.2-0.7,0.4-1.4,0.6-2.1
						c0.1-0.3,0.2-0.6,0.3-0.9c0.2-0.8,0.5-1.5,0.8-2.3c0.2-0.7,0.5-1.3,0.7-2c0.2-0.4,0.3-0.8,0.5-1.3c0.6-1.5,1.2-3,1.8-4.4
						c0.7-1.7,1.5-3.4,2.3-5.1c0.4-0.8,0.8-1.6,1.2-2.4c0.2-0.5,0.5-1,0.8-1.5c0.3-0.6,0.6-1.2,0.9-1.8c0.1-0.2,0.2-0.4,0.4-0.6
						c0.4-0.8,0.9-1.6,1.3-2.4c0.4-0.7,0.8-1.4,1.2-2.1c0.4-0.6,0.8-1.2,1.1-1.8c0.4-0.6,0.7-1.1,1.1-1.7c1.5-2.3,3-4.5,4.6-6.7
						c0.5-0.8,1.1-1.5,1.6-2.2c0.4-0.6,0.9-1.1,1.3-1.6c1.3-1.6,2.6-3.2,4-4.8c0.6-0.6,1.1-1.3,1.7-1.9c1.2-1.3,2.5-2.7,3.8-3.9
						c0.5-0.5,1-1,1.6-1.5c0.8-0.8,1.6-1.6,2.5-2.4c0.6-0.6,1.2-1.1,1.9-1.7c1.1-1,2.3-2,3.4-2.9c0.6-0.5,1.2-1,1.8-1.4
						c2.6-2.1,5.2-4,8-5.9c0.8-0.5,1.6-1.1,2.4-1.6c0.6-0.4,1.3-0.8,1.9-1.2c0.5-0.3,1-0.6,1.5-0.9c0.7-0.4,1.4-0.9,2.1-1.3
						c0.9-0.5,1.8-1,2.7-1.5c0.9-0.5,1.8-1,2.7-1.5c0.9-0.5,1.9-1,2.8-1.4c0.1,0,0.1,0,0.2-0.1c1.6-0.8,3.3-1.5,5-2.3
						c1.3-0.5,2.5-1.1,3.8-1.5c0.8-0.4,1.7-0.7,2.5-1c0.8-0.3,1.5-0.6,2.3-0.8c0.4-0.1,0.8-0.3,1.2-0.4c0.8-0.3,1.7-0.6,2.5-0.8
						c1-0.3,2-0.6,3-0.9c1-0.3,2-0.6,3.1-0.8c0.9-0.2,1.8-0.5,2.7-0.7c0.7-0.2,1.4-0.3,2.1-0.5c0.3-0.1,0.6-0.1,0.9-0.2
						c0.5-0.1,1-0.2,1.6-0.3c0.9-0.2,1.8-0.4,2.7-0.5c0.7-0.1,1.3-0.2,2-0.3c0.7-0.1,1.4-0.2,2.1-0.3c1.8-0.2,3.6-0.5,5.4-0.6
						c-4.5-9.2-10.7-17.5-18-24.5C122,252.9,73.7,301.4,61.6,362.8C68.8,370.1,77.1,376.2,86.3,380.7z"/>
				</g>
				<g>
					<path class="st1" d="M235.3,282.4c-6.9-1.3-14-2-21.3-2c-2.3,0-4.5,0.1-6.7,0.2c2,7.2,3,14.8,3,22.6
						c0,47.6-38.7,86.3-86.3,86.3c-7.7,0-15.2-1-22.4-3h0c-0.1,2.1-0.2,4.2-0.2,6.4c0,7.4,0.7,14.6,2.1,21.6
						c6.6,1.2,13.5,1.9,20.5,1.9c62.5,0,113.2-50.6,113.2-113.2C237.2,296.1,236.6,289.1,235.3,282.4z M124.1,190
						c-62.5,0-113.1,50.7-113.1,113.2c0,30.9,12.4,58.8,32.4,79.2c0.7-12.3,2.8-24.4,6.1-36.1c-7.4-12.7-11.6-27.5-11.6-43.2
						c0-47.6,38.7-86.3,86.3-86.3c15.6,0,30.3,4.2,43,11.5c11.7-3.3,23.7-5.4,36.1-6.2C182.7,202.3,154.8,190,124.1,190z"/>
				</g>
			</g>
		</g>
	</g>
	<text transform="matrix(1 0 0 1 485.6367 471.4424)" class="st0 st2 st3">Orion</text>
</g>
</svg>
