<?xml version="1.0" encoding="UTF-8"?>
<svg width="158px" height="44px" viewBox="0 0 158 44" version="1.1" xmlns="http://www.w3.org/2000/svg" xmlns:xlink="http://www.w3.org/1999/xlink">
    <!-- Generator: Sketch 53.2 (72643) - https://sketchapp.com -->
    <title>logo-Payconiq</title>
    <desc>Created with Sketch.</desc>
    <g id="V2" stroke="none" stroke-width="1" fill="none" fill-rule="evenodd">
        <g id="home" transform="translate(-1081.000000, -3294.000000)" fill="#D4D4D4">
            <g id="clients" transform="translate(90.000000, 3058.000000)">
                <g id="logo" transform="translate(960.000000, 177.000000)">
                    <path d="M169,79 L169,65 L173,65 L173,79 L169,79 Z M170.501648,59.0000012 C171.882958,59.0013236 173.000659,60.122058 173,61.5026441 C172.998682,62.8838914 171.878345,64.001981 170.497035,63.9999974 C169.116384,63.9993362 167.998683,62.879263 168.000001,61.4980157 C168.00066,60.1174296 169.120997,58.9986788 170.501648,59.0000012 Z M184.996837,65.096936 L189,65.096936 L189,82 L184.996837,82 L184.996837,78.2102927 C184.084622,78.6452777 183.062302,78.8894583 181.985237,78.8894583 C178.132777,78.8894583 175,75.774622 175,71.9450359 C175,68.1160634 178.132777,65 181.985237,65 C183.062302,65 184.084622,65.2447941 184.996837,65.6803927 L184.996837,65.096936 Z M131.083593,69.0115729 C129.416095,69.0115729 128.059264,70.3516498 128.059264,71.9996908 C128.059264,73.6477318 129.416095,74.9878086 131.083593,74.9878086 C132.092951,74.9878086 133.033063,74.4918503 133.597006,73.6607182 L136.970056,75.8950042 C135.649407,77.8392597 133.449782,79 131.083593,79 C127.176544,79 124,75.8597553 124,71.9996908 C124,68.1402447 127.176544,65 131.083593,65 C133.47224,65 135.683718,66.1792924 137,68.1538496 L133.609482,70.3603074 C133.046163,69.5161889 132.101684,69.0115729 131.083593,69.0115729 Z M87.0306883,65 C90.8747041,65 94,68.1160634 94,71.9450359 C94,75.774622 90.8747041,78.8894583 87.0306883,78.8894583 C85.9437089,78.8894583 84.9125822,78.639756 83.9943884,78.1949547 L83.9943884,82 L80,82 L80,65.096936 L83.9943884,65.096936 L83.9943884,65.6951171 C84.9125822,65.2503158 85.9437089,65 87.0306883,65 Z M108.977808,65.0977075 L108.977808,71.475286 C108.990137,71.6484385 109,71.8234463 109,71.9996908 C109,72.1771721 108.990137,72.3515615 108.977808,72.5253324 L108.977808,78.9530015 L104.966008,78.9530015 L104.966008,78.3389284 C104.06477,78.7619153 103.059354,79 101.999692,79 C98.1401523,79 95,75.8603737 95,71.9996908 C95,68.1408631 98.1401523,65 101.999692,65 C103.059354,65 104.06477,65.2387031 104.966008,65.66169 L104.966008,65.0977075 L108.977808,65.0977075 Z M145.000616,65 C148.859986,65 152,68.1408631 152,72.0003092 C152,74.582137 150.609369,76.8955784 148.397059,78.1187773 C148.384731,78.1261982 148.371169,78.1323822 148.358841,78.139803 C148.228161,78.2109192 148.095016,78.2789434 147.960021,78.3426388 C147.935365,78.3531516 147.910092,78.3636645 147.886668,78.3747957 C147.788658,78.4193206 147.691265,78.4657008 147.589556,78.5058969 C147.562434,78.5170281 147.535312,78.524449 147.507573,78.533725 C146.720412,78.8361235 145.873459,79 145.000616,79 C141.140631,79 138,75.8603737 138,72.0003092 C138,71.1543354 138.152871,70.3343346 138.435805,69.5699898 C138.437654,69.5638058 138.439503,69.5570034 138.441969,69.5508194 C138.449366,69.5304121 138.458612,69.5106233 138.467242,69.490216 C138.520254,69.3535492 138.575731,69.2181192 138.636756,69.0851628 C138.649701,69.0573347 138.662645,69.0295066 138.67559,69.0029153 C138.740313,68.8662485 138.809968,68.7314369 138.883322,68.5997173 C138.892568,68.5836389 138.899965,68.5675604 138.909827,68.5521004 C139.560761,67.4012545 140.535312,66.4359291 141.756428,65.7958832 C141.807591,65.7699103 141.859986,65.7470295 141.911765,65.724767 C142.855495,65.258492 143.90833,65 145.000616,65 Z M160.55014,65.0187458 C163.755998,65.0187458 167,67.3226066 167,71.7241241 L167,78.9087704 L162.997445,78.9087704 L162.997445,71.7241241 C162.997445,70.8336978 162.747669,70.1507253 162.256117,69.6939522 C161.826085,69.2934166 161.220103,69.072216 160.55014,69.072216 C160.30221,69.072216 158.224646,69.1422004 158.023473,71.2954698 L158.023473,79 L154.019687,79 L154.019687,71.6366436 L154,71.6366436 C154,71.4554341 154.006767,71.2785985 154.019687,71.1036376 L154.019687,65 L158.023473,65 L158.023473,65.5136353 C158.834319,65.1868333 159.699304,65.0187458 160.55014,65.0187458 Z M120.047538,65 L124,65 L118.059935,80.4451295 L117.47341,81.9765721 L117.471016,81.9734895 L117.462038,82 L113.510174,82 L115.363116,77.1812577 L110,65 L114.2158,65 L117.239997,72.3014797 L120.047538,65 Z M70.9990371,72.1105833 C70.9990371,72.1331918 70.9971998,72.1551892 70.9971998,72.1771867 C70.9916876,72.4099931 70.9763761,72.6434105 70.9537151,72.876828 C70.9206423,73.2104561 70.8716455,73.5446952 70.8006002,73.8771013 C70.3045079,76.228385 68.9301486,78.2429854 66.9323053,79.551223 C65.4379038,80.5276657 63.7597645,80.9957227 62.0975491,80.9957227 C62.0852999,80.9957227 62.0742756,80.9938896 62.061414,80.9938896 C62.0516146,80.9938896 62.0405904,80.9957227 62.0301786,80.9957227 C59.1075213,80.9957227 56.2418227,79.550001 54.5367352,76.893808 C53.8464932,75.8183768 53.417159,74.6488454 53.2254591,73.4585385 L45.4392601,79.1100518 L44.9321435,79.4772872 C44.9290812,79.4797313 44.9254065,79.4833976 44.9205068,79.4858417 C44.15187,79.9899501 43.3452607,80.3681842 42.5159903,80.6205439 C41.6873325,80.8735146 40.8360136,81 39.9804075,81 C39.9675459,81 39.9546842,80.9981669 39.9412101,80.9981669 C39.9314108,80.9981669 39.9222239,81 39.913037,81 C39.6031324,81 39.2920029,80.9835019 38.9820984,80.9498947 C38.9790361,80.9498947 38.9747488,80.9492836 38.972299,80.9486726 C38.820409,80.9321745 38.6679066,80.9126212 38.5166291,80.8881796 C38.3610643,80.8631269 38.2054996,80.833797 38.0499348,80.8008008 C35.7219758,80.2985255 33.7271949,78.9108526 32.4312303,76.893808 L32.4802271,76.8620339 L32.4802271,76.8614229 L32.4312303,76.893808 C29.7584566,72.7307893 30.9380538,67.1483236 35.0617444,64.4487468 L35.0617444,64.4493579 C35.5713108,64.1151187 36.1127251,63.8609259 36.6651636,63.6433955 C36.6651636,63.6433955 36.6657761,63.6427844 36.6663886,63.6427844 C36.6884371,63.6342299 36.7104857,63.6256753 36.7319217,63.6171207 C36.7325342,63.6171207 36.7325342,63.6165097 36.7337591,63.6165097 C36.9015731,63.5517394 37.0657122,63.4741373 37.235976,63.4191436 C37.8600724,63.2199444 37.6401993,63.1997801 38.2924688,63.1447865 C38.3396282,63.1405092 38.4014866,63.1356209 38.4615077,63.1313436 C39.0133338,63.0347992 39.5743468,62.9901932 40.1390346,63.001803 C40.1616956,63.002414 40.1843566,63.0054692 40.2076301,63.0060803 C40.4654755,63.0134128 40.7251584,63.0280777 40.9842288,63.0580187 C41.2261504,63.0855155 41.466847,63.1288994 41.7075436,63.1765606 C41.7510283,63.1857262 41.7951254,63.1887814 41.8398349,63.198558 C44.0140666,63.6672261 45.8912553,64.9168038 47.1853824,66.7230394 C47.2772514,66.8501359 47.3727951,66.972955 47.4573145,67.1055508 C47.6281907,67.3707423 47.7843679,67.6432664 47.9240087,67.9219008 C48.0275144,68.1253773 48.1132587,68.3355752 48.1996156,68.5451621 C48.230851,68.6197091 48.2694359,68.6918118 48.2982216,68.7669698 C48.405402,69.0498816 48.4984958,69.3376816 48.5775031,69.6285369 C48.5787281,69.6322031 48.5805654,69.6358694 48.5805654,69.6401466 C48.655898,69.9163369 48.7134692,70.1968045 48.761241,70.4784942 C48.7643033,70.4980475 48.7704279,70.5169897 48.7734902,70.536543 L56.5535647,64.8911401 L57.0704806,64.5153502 C58.0351045,63.8823123 59.0652616,63.4723042 60.1174672,63.2358315 C60.271807,63.2003911 60.4249219,63.1637287 60.5804867,63.1362319 C60.7483006,63.108124 60.9148896,63.0842935 61.0839285,63.0659622 C62.0301786,62.955975 62.9917402,62.9938595 63.9441149,63.198558 C64.5271764,63.3238213 65.0881894,63.5046893 65.6234791,63.7368847 C66.0234152,63.9110312 66.4098773,64.1138966 66.7785779,64.3442589 C67.88468,65.0353457 68.8352173,65.9708486 69.5628193,67.1055508 C70.5347928,68.6172649 71.0247604,70.3483425 70.9990371,72.1105833 Z M182.000619,75 C183.654084,75 185,73.6545944 185,72 C185,70.3460265 183.654084,69 182.000619,69 C180.346535,69 179,70.3460265 179,72 C179,73.6545944 180.346535,75 182.000619,75 Z M86.9996906,75 C88.6539453,75 90,73.6545944 90,72 C90,70.3460265 88.6539453,69 86.9996906,69 C85.3454358,69 84,70.3460265 84,72 C84,73.6545944 85.3454358,75 86.9996906,75 Z M105,72.3479565 L105,71.6526643 C104.826708,70.1621314 103.552795,69 102.01118,69 C100.350932,69 99,70.346508 99,71.9996896 C99,73.6541128 100.350932,75 102.01118,75 C103.552795,75 104.826708,73.8384894 105,72.3479565 Z M147.727048,73.249793 C147.901589,72.866101 148,72.4426738 148,72 C148,70.3460265 146.655044,69 145.000619,69 C144.479472,69 143.979988,69.138452 143.541778,69.3818295 C143.459459,69.428394 143.380235,69.4762003 143.304106,69.5295944 C143.264494,69.5556705 143.226738,69.584851 143.188983,69.6134106 C143.123994,69.6624586 143.063338,69.7121275 143.004539,69.7649007 C142.964927,69.8002897 142.926553,69.8356788 142.889416,69.8729305 C142.827522,69.9337748 142.768723,69.9964818 142.713018,70.062293 C142.690118,70.0889901 142.667217,70.1150662 142.645554,70.143005 C142.579946,70.2262003 142.51929,70.3131209 142.462967,70.4031457 C142.445636,70.4292219 142.428925,70.455298 142.414071,70.4826159 C142.358366,70.5776076 142.306994,70.6750828 142.261811,70.7756623 C142.251289,70.799255 142.242005,70.8228477 142.232721,70.8464404 C142.082938,71.2059189 142,71.5958195 142,72 C142,73.6539735 143.346194,75 145.000619,75 C145.420879,75 145.82876,74.9074917 146.200743,74.745447 C146.257066,74.7206126 146.310914,74.6926738 146.364762,74.6647351 C146.443367,74.625 146.520734,74.5840232 146.595626,74.5374586 C146.637714,74.5113825 146.678564,74.4809603 146.718795,74.4524007 C146.798638,74.3959023 146.877863,74.339404 146.952135,74.276697 C146.981844,74.25 147.009697,74.2220613 147.038168,74.1953642 C147.116154,74.1239652 147.192284,74.0507036 147.261605,73.9706126 C147.285744,73.9439156 147.30555,73.9134934 147.328451,73.8855546 C147.396534,73.8029801 147.461523,73.7179222 147.520941,73.6272765 C147.543842,73.5912666 147.561791,73.553394 147.584073,73.5161424 C147.635445,73.4298427 147.68496,73.3429222 147.727048,73.249793 Z M36.0006921,71.9315189 C35.9951351,72.1842464 36.0235377,72.4369739 36.067994,72.6878833 C36.0902221,72.8212167 36.1112154,72.9545502 36.1488797,73.0854594 C36.2544634,73.4648537 36.4199396,73.8351571 36.6471605,74.1824301 C36.7385429,74.3212182 36.8373346,74.4503092 36.9423009,74.5739457 C37.1293877,74.7963701 37.3430248,74.9848552 37.5671586,75.1569765 C37.6208766,75.1981887 37.6758295,75.2375827 37.7320173,75.2763706 C37.9586208,75.4327344 38.1944861,75.5733406 38.4451701,75.6787952 C38.4482574,75.6800073 38.4507271,75.6818255 38.4538144,75.6830376 C38.7199346,75.7945529 38.9971689,75.8709166 39.2793428,75.92425 C39.3256514,75.9327349 39.3725775,75.9394015 39.4188861,75.9466743 C39.6998251,75.9890985 39.9832339,76.0109167 40.2678776,75.9945531 C40.6895948,75.963644 41.1100771,75.8666742 41.512036,75.7000074 C41.7337,75.6084921 41.9504243,75.5000072 42.1585044,75.3660676 C42.2733498,75.2921282 42.3832556,75.2127342 42.4888393,75.1290977 L42.7660736,74.9309157 C42.766691,74.9309157 42.766691,74.9303097 42.7673085,74.9303097 L42.4888393,75.1290977 C43.2143411,74.5527335 43.7132393,73.7533388 43.9095879,72.8381864 C44.1349566,71.7921248 43.9355207,70.7212147 43.3501797,69.8248502 C42.5826914,68.6490915 41.2965465,68.0084849 39.9832339,68 C39.6146173,68.0042424 39.2447657,68.0575758 38.8847933,68.1630305 C38.8458941,68.1745456 38.8076123,68.1927275 38.7693305,68.2054547 C38.6285523,68.2515154 38.4896264,68.2987882 38.3525529,68.3606064 C38.2093048,68.426061 38.070379,68.5060611 37.9333054,68.5896975 C37.9018156,68.6084854 37.8697083,68.6218188 37.8382184,68.6418188 L37.8382184,68.6412127 L37.8382184,68.6406067 C36.6718585,69.3921225 36.0253901,70.644851 36.0006921,71.9315189 Z M65.9098792,72.8348474 C66.1346273,71.7902928 65.9358116,70.7221359 65.3492438,69.8258524 L65.3492438,69.824642 C65.2794731,69.7169185 65.203528,69.6146417 65.1244957,69.5153909 C65.1065899,69.4929989 65.0874493,69.4718174 65.0683086,69.4500306 C65.0077995,69.3768028 64.9442032,69.3047854 64.879372,69.2363992 C64.8497349,69.2055346 64.8188629,69.1770908 64.7892258,69.1480417 C64.730569,69.0905489 64.6712948,69.0348716 64.6095508,68.981615 C64.5749742,68.9507504 64.5385452,68.9217014 64.5021163,68.8926524 C64.4428421,68.8442373 64.3804806,68.7976379 64.3181192,68.7522488 C64.2786031,68.7244101 64.2403218,68.6971766 64.1995708,68.6705484 C64.135357,68.6281852 64.0680561,68.5882428 64.0007551,68.5489056 C63.9606215,68.5253032 63.9211054,68.5017009 63.8809718,68.4799141 C63.8056441,68.4405769 63.729699,68.4042656 63.652519,68.3697699 C63.6160901,68.3528246 63.5815135,68.334669 63.5457019,68.3195393 C63.4308581,68.2711242 63.314162,68.2275507 63.1943787,68.1894239 C63.0671861,68.1494814 62.9381411,68.1155909 62.806009,68.0877523 C62.6714071,68.0593084 62.533718,68.0381268 62.3978812,68.0236023 C62.3404593,68.0169453 62.2836549,68.0163401 62.2256155,68.0127089 C62.1472007,68.0072623 62.0687858,68.0006052 61.9903709,68 L61.9897535,68 C61.892198,68.0006052 61.7964948,68.0048415 61.6989393,68.0127089 C61.6865905,68.0133141 61.6742417,68.0157349 61.6612755,68.0169453 C61.553841,68.0260231 61.4476413,68.0411528 61.3420591,68.0593084 C61.3155092,68.0635447 61.2895767,68.0683863 61.2636442,68.0732278 C61.1562097,68.0938041 61.05001,68.1180117 60.9444278,68.1476659 C60.9333139,68.1506918 60.9228174,68.1531126 60.9123209,68.1555333 C60.7974771,68.1888187 60.6851031,68.2275507 60.5733465,68.2711242 C60.5455617,68.2814124 60.5190118,68.292911 60.4924618,68.3044096 C60.40849,68.3389053 60.3239008,68.3770322 60.2411638,68.4175798 C60.2102918,68.4327095 60.1794198,68.4478392 60.1497827,68.4641792 C60.1139712,68.4823349 60.0806295,68.5047268 60.0460528,68.5234877 C59.9762821,68.5622197 59.9065114,68.5997414 59.8398279,68.6433149 C57.9720723,69.844008 57.4379869,72.3264894 58.6475515,74.1771545 C59.233502,75.073438 60.1368165,75.691335 61.1901689,75.9146494 C61.4451715,75.9679059 61.7007916,75.9945342 61.9545594,75.9999809 C62.066316,76.0005861 62.1762203,75.9866668 62.2873595,75.9781941 C62.3799755,75.9721423 62.4732089,75.9673007 62.5658249,75.955197 C63.1264603,75.8728914 63.667955,75.6743897 64.1588197,75.3578764 L64.1754906,75.3838995 L64.176108,75.3838995 L64.1594372,75.3578764 C65.0633691,74.7762907 65.6845136,73.8812175 65.9098792,72.8348474 Z M147.357414,94.1071175 L147.357414,98.9158157 C147.358137,99.0815361 147.227946,99.2182936 147.06239,99.2257189 L145.705308,99.2257189 C145.539729,99.218345 145.409508,99.081557 145.410284,98.9158157 L145.410284,94.1071175 C145.410284,92.8237212 145.292247,92.4549399 144.156395,92.4549399 C143.5667,92.4982315 142.995557,92.6801398 142.489446,92.9858613 L142.489446,98.9158157 C142.490169,99.0815361 142.359978,99.2182936 142.194422,99.2257189 L140.837196,99.2257189 C140.671669,99.2182809 140.541526,99.0815081 140.542316,98.9158157 L140.542316,91.2009825 C140.542771,91.0383134 140.674527,90.9065571 140.837196,90.9061022 L142.120629,90.9061022 C142.283326,90.9065453 142.41513,91.0382854 142.415653,91.2009825 L142.415653,91.5108858 C143.11068,91.014464 143.951968,90.7651693 144.805247,90.8027891 C146.929506,90.8027891 147.357414,92.2336316 147.357414,94.1071175 Z M91.2114882,97.4996762 L91.3443689,97.4996762 L92.937528,91.1565534 C92.9667115,91.0152404 93.0883756,90.9119575 93.2325517,90.9061022 L94.737074,90.9061022 C94.8788839,90.9037356 94.9967277,91.0148494 95.0026947,91.1565534 C95.0050465,91.1869382 94.9999514,91.217438 94.9878511,91.2454085 L92.5244701,99.8599056 C92.0671596,101.467908 91.5213586,102.17596 89.5151386,102.17596 C88.988296,102.172256 88.4636337,102.107876 87.9515261,101.984091 C87.7892364,101.939955 87.6417993,101.88079 87.6417993,101.73335 L87.6417993,100.78926 C87.6433306,100.714091 87.6759113,100.642909 87.7318031,100.592622 C87.7876949,100.542334 87.8619106,100.517428 87.936823,100.523818 L87.9663667,100.523818 C88.379287,100.538518 89.2202553,100.612419 89.6331727,100.612419 C90.267467,100.612419 90.5920375,100.435253 90.7985678,99.6683264 L90.9166079,99.2257189 L90.6952309,99.2257189 C90.267467,99.2257189 89.7365126,99.1224179 89.4119421,98.0011617 L87.4795126,91.2454085 C87.468405,91.2121597 87.4634243,91.177171 87.4648124,91.1421433 C87.4648124,90.9943773 87.5531624,90.9061022 87.7449927,90.9061022 L89.2349523,90.9061022 C89.37602,90.9244753 89.4891705,91.0316736 89.5151326,91.1715435 L91.0050983,97.1753958 C91.0640481,97.4261011 91.1229948,97.4996762 91.2114882,97.4996762 Z M86.8888878,94.5052511 L86.8888878,95.6409562 C86.8888878,97.9422747 85.7383392,99.3437081 83.3633021,99.3437081 C82.3632522,99.334286 81.3679003,99.2055496 80.3983608,98.9602298 C80.0590903,98.8716766 80,98.7830756 80,98.5620603 L80,88.2948804 C80.0005797,88.1321513 80.1324377,88.0004215 80.2951673,88 L81.6522494,88 C81.8149515,88.0004317 81.9467624,88.1321785 81.9472732,88.2948804 L81.9472732,90.9061022 C82.4166068,90.8415979 82.8895762,90.8070902 83.3633021,90.8027891 C85.7383392,90.8027891 86.8888878,92.2039475 86.8888878,94.505263 L86.8888878,94.5052511 Z M84.9417581,94.5052511 C84.9417581,93.2957198 84.6320313,92.3958018 83.3633021,92.3958018 C82.8896947,92.4028936 82.4168948,92.437388 81.9472732,92.4991118 L81.9472732,97.6474064 C82.4156285,97.7208128 82.8892519,97.7553643 83.3633021,97.7507075 C84.6320342,97.7507075 84.9417581,96.8507894 84.9417581,95.6409681 L84.9417581,94.5052511 Z M153.169986,97.8242825 C153.361663,97.8242825 153.479712,97.8981476 153.479698,98.0455818 L153.479698,98.9749717 C153.479698,99.1224118 153.391204,99.210977 153.199374,99.2404131 C152.868444,99.3025803 152.532919,99.337133 152.196265,99.3437141 C150.529459,99.3437141 149.850918,98.9749747 149.850918,96.9982236 L149.850918,92.3663747 L148.464289,92.1597726 C148.305861,92.1491961 148.179699,92.0230342 148.169122,91.8646052 L148.169122,91.2009825 C148.169714,91.0382581 148.301565,90.9065351 148.464289,90.9061022 L149.850909,90.9061022 L149.850909,89.6962838 C149.861546,89.5380408 149.987547,89.4120399 150.145789,89.4014035 L151.517715,89.1680232 C151.536338,89.1661576 151.561962,89.1653624 151.576806,89.1653624 C151.638659,89.1585557 151.700395,89.1791364 151.745791,89.2216959 C151.791187,89.2642554 151.815702,89.3245376 151.812895,89.3867005 L151.812895,90.9060992 L153.140296,90.9060992 C153.303042,90.9064798 153.434924,91.0382334 153.435463,91.2009795 L153.435463,92.0712044 C153.435049,92.234049 153.30314,92.3659577 153.140296,92.3663717 L151.812895,92.3663717 L151.812895,96.9982445 C151.812895,97.7357174 151.857141,97.8242825 152.387955,97.8242825 L153.169986,97.8242825 Z M139.022517,94.4758629 L139.022517,95.6706583 C139.022517,97.7801495 137.812878,99.343732 135.496931,99.343732 C133.180841,99.343732 131.971345,97.7801495 131.971345,95.6706583 L131.971345,94.4758629 C131.971345,92.3663717 133.180841,90.8027891 135.496931,90.8027891 C137.812878,90.8027891 139.022517,92.3663717 139.022517,94.4758629 Z M137.075244,94.4758629 C137.075244,93.2663287 136.529443,92.4843789 135.496931,92.4843789 C134.464276,92.4843789 133.918475,93.2663287 133.918475,94.4758629 L133.918475,95.6706583 C133.918475,96.8801925 134.464276,97.6621423 135.496931,97.6621423 C136.529443,97.6621423 137.075244,96.8801925 137.075244,95.6706583 L137.075244,94.4758629 Z M121.364461,90.8027891 C123.488722,90.8027891 123.916641,92.2336316 123.916629,94.1071175 L123.916629,98.9158157 C123.917352,99.0815361 123.78716,99.2182936 123.621605,99.2257189 L122.264379,99.2257189 C122.098852,99.2182809 121.968709,99.0815081 121.969499,98.9158157 L121.969499,94.1071175 C121.969499,92.8237212 121.851318,92.4549399 120.715611,92.4549399 C120.125915,92.4982315 119.554772,92.6801398 119.048661,92.9858613 L119.048661,98.9158157 C119.049318,99.0815642 118.919078,99.2183063 118.753494,99.2257189 L117.396412,99.2257189 C117.230856,99.2182936 117.100665,99.0815361 117.101388,98.9158157 L117.101388,91.2009825 C117.10191,91.0382854 117.233714,90.9065453 117.396412,90.9061022 L118.679847,90.9061022 C118.842544,90.9065453 118.974348,91.0382854 118.97487,91.2009825 L118.97487,91.5108738 C119.669899,91.0144561 120.511185,90.7651655 121.364461,90.8027891 Z M115.331101,93.6200481 L115.331101,98.9308476 C115.330527,99.0935229 115.198753,99.2252326 115.036077,99.2257279 L113.782054,99.2257279 C113.619407,99.2252207 113.487681,99.093495 113.487174,98.9308476 L113.487174,98.6948064 C112.867268,99.0994763 112.147199,99.3241237 111.40716,99.3437291 C110.182962,99.3437291 108.855284,98.8716856 108.855284,96.8802015 L108.855284,96.8210754 C108.855284,95.1394946 109.887795,94.2692667 112.454513,94.2692667 L113.383974,94.2692667 L113.383974,93.6200481 C113.383974,92.661545 112.956067,92.4255398 112.085839,92.4255398 C111.282971,92.4221195 110.480451,92.4596314 109.681402,92.5379293 C109.656944,92.5412871 109.632295,92.5430657 109.607609,92.5432539 C109.460025,92.5432539 109.341988,92.4991148 109.341988,92.2925127 L109.341988,91.3484197 C109.341988,91.1862795 109.430625,91.0829783 109.622311,91.0388393 C110.433845,90.8801469 111.258937,90.8010924 112.085839,90.8028011 C114.180406,90.8027891 115.331101,91.731901 115.331101,93.6200481 Z M113.383972,95.5673811 L112.45451,95.5673811 C111.112127,95.5673811 110.817104,95.9952526 110.817104,96.8210544 L110.817104,96.8801806 C110.817104,97.6029684 111.141675,97.7948346 111.879306,97.7948346 C112.407061,97.78222 112.923685,97.6404624 113.383972,97.3819651 L113.383972,95.5673811 Z M107.615655,95.9067055 L107.615655,96.1574467 C107.615655,98.5029372 105.875056,99.3437261 103.131192,99.3437261 C102.277535,99.3605577 101.423958,99.3062142 100.579327,99.18126 C100.092613,99.0929819 99.8712395,98.9308416 99.8712395,98.384933 L99.8712395,89.0914943 C99.8712395,88.5603216 100.06307,88.3687455 100.53508,88.2948804 C101.352028,88.1906239 102.175057,88.1413663 102.998608,88.1474402 C105.668526,88.1474402 107.542005,88.914654 107.542005,91.1421433 L107.542005,91.4370207 C107.592061,92.3882633 107.053201,93.2727256 106.184926,93.6644742 C107.095994,94.0245073 107.672981,94.928757 107.615655,95.9067055 Z M101.921563,92.8678602 L103.795042,92.8678602 C105.167115,92.8678602 105.550485,92.2189375 105.550485,91.4664238 L105.550485,91.2598575 C105.550485,90.2274893 104.886647,89.8437211 102.998608,89.8437211 C102.644494,89.8437211 102.231577,89.8587081 101.921563,89.8734441 L101.921563,92.8678602 Z M105.609585,95.9361295 C105.609585,95.1247407 105.181821,94.3725469 103.795048,94.3725469 L101.921563,94.3725469 L101.921563,97.6180033 C102.275677,97.6180033 102.821624,97.6474064 103.131204,97.6474064 C105.019531,97.6474064 105.609579,97.1603698 105.609579,96.1280047 L105.609585,95.9361295 Z M130.65851,90.9943773 C130.909287,91.0535423 130.968233,91.1421433 130.968243,91.3781457 L130.968243,92.3366517 C130.968243,92.4843789 130.850206,92.5582439 130.702622,92.5582439 C130.687907,92.5587049 130.673178,92.5582596 130.658519,92.5569106 C130.027625,92.4753116 129.391493,92.4412255 128.755492,92.4549399 C128.062252,92.4549399 127.33932,92.8531213 127.33932,94.3872619 L127.33932,95.7592652 C127.33932,97.2931159 128.062252,97.6915873 128.755492,97.6915873 C129.391493,97.7053017 130.027625,97.6712156 130.658519,97.5896166 C130.67422,97.5882055 130.687919,97.5882832 130.702622,97.5882832 C130.850206,97.5882832 130.968243,97.6621483 130.968243,97.8095885 L130.968243,98.7683666 C130.968243,99.0044047 130.909293,99.0929699 130.658516,99.1518449 C130.033998,99.2908576 129.395188,99.3552633 128.755489,99.3437111 C126.837906,99.3437111 125.392187,98.1636159 125.392187,95.7592504 L125.392187,94.3872529 C125.392187,91.9829233 126.837906,90.8027921 128.755489,90.8027921 C129.395169,90.7913365 130.033955,90.8556427 130.658516,90.9943683 Z M160.827056,93.6200481 L160.827056,98.9308476 C160.826482,99.0935229 160.694707,99.2252326 160.532032,99.2257279 L159.278,99.2257279 C159.115353,99.2252207 158.983627,99.093495 158.98312,98.9308476 L158.98312,98.6948064 C158.363215,99.0994758 157.643147,99.3241232 156.903109,99.3437291 C155.678911,99.3437291 154.351229,98.8716856 154.351229,96.8802015 L154.351229,96.8210754 C154.351229,95.1394946 155.383741,94.2692667 157.950458,94.2692667 L158.879903,94.2692667 L158.879903,93.6200481 C158.879903,92.661545 158.451995,92.4255398 157.58177,92.4255398 C156.778901,92.4221194 155.976379,92.4596313 155.17733,92.5379293 C155.152873,92.541287 155.128225,92.5430655 155.10354,92.5432539 C154.955956,92.5432539 154.837916,92.4991148 154.837916,92.2925127 L154.837916,91.3484197 C154.837916,91.1862795 154.926553,91.0829783 155.118239,91.0388393 C155.929774,90.880147 156.754867,90.8010924 157.58177,90.8028011 C159.676343,90.8027891 160.827056,91.731901 160.827056,93.6200481 Z M158.879915,95.5673811 L157.950452,95.5673811 C156.608074,95.5673811 156.313047,95.9952526 156.313047,96.8210544 L156.313047,96.8801806 C156.313047,97.6029684 156.637617,97.7948346 157.375249,97.7948346 C157.903004,97.78222 158.419627,97.6404624 158.879915,97.3819651 L158.879915,95.5673811 Z M167.568399,90.9943653 L167.568399,90.9943773 C167.819182,91.0535423 167.878126,91.1421433 167.878126,91.3781457 L167.878126,92.3366517 C167.878126,92.4843789 167.760089,92.5582439 167.612506,92.5582439 C167.597791,92.5587049 167.583062,92.5582596 167.568402,92.5569106 C166.937508,92.4753116 166.301376,92.4412255 165.665375,92.4549399 C164.972135,92.4549399 164.249204,92.8531213 164.249204,94.3872619 L164.249204,95.7592623 C164.249204,97.2931129 164.972135,97.6915843 165.665375,97.6915843 C166.301376,97.7052987 166.937508,97.6712126 167.568402,97.5896136 C167.584104,97.5882025 167.597805,97.5882803 167.612506,97.5882803 C167.760089,97.5882803 167.878126,97.6621453 167.878126,97.8095855 L167.878126,98.7683636 C167.878126,99.0044018 167.819176,99.0929669 167.568399,99.1518419 C166.943881,99.2908545 166.305071,99.3552604 165.665373,99.3437081 C163.74779,99.3437081 162.302071,98.1636129 162.302071,95.7592474 L162.302071,94.3872499 C162.302071,91.9829203 163.74779,90.8027891 165.665373,90.8027891 C166.305052,90.7913335 166.943838,90.8556396 167.568399,90.9943653 Z M173.690258,97.8242825 C173.881946,97.8242825 173.999986,97.8981476 174,98.0455818 L174,98.9749717 C174,99.1224118 173.911507,99.210977 173.719676,99.2404131 C173.388746,99.3025805 173.05322,99.3371332 172.716565,99.3437141 C171.049759,99.3437141 170.371218,98.9749747 170.371218,96.9982236 L170.371218,92.3663747 L168.984592,92.1597726 C168.826163,92.1491961 168.700001,92.0230342 168.689425,91.8646052 L168.689425,91.2009825 C168.690016,91.0382581 168.821868,90.9065351 168.984592,90.9061022 L170.371209,90.9061022 L170.371209,89.6962838 C170.381847,89.5380414 170.507847,89.4120412 170.66609,89.4014035 L172.038015,89.1680232 C172.05664,89.1661576 172.082261,89.1653624 172.097109,89.1653624 C172.158958,89.1585624 172.220689,89.179146 172.26608,89.2217046 C172.311472,89.2642632 172.335985,89.3245414 172.33318,89.3867005 L172.33318,90.9060992 L173.66058,90.9060992 C173.823327,90.9064814 173.955207,91.0382341 173.955747,91.2009795 L173.955747,92.0712044 C173.955332,92.2340483 173.823424,92.3659561 173.66058,92.3663717 L172.33318,92.3663717 L172.33318,96.9982445 C172.33318,97.7357174 172.377426,97.8242825 172.908237,97.8242825 L173.690258,97.8242825 Z" id="logo-Payconiq"></path>
                </g>
            </g>
        </g>
    </g>
</svg>