<svg xmlns="http://www.w3.org/2000/svg" width="248" height="47" viewBox="0 0 248 47">
  <path fill="#D4D4D4" d="M84.5643444,1.18046778 L85.095,1.19441 C85.7975,1.22863 86.5,1.26285 87.1957,1.35867 C87.6159,1.41343 88.0221,1.61191 88.4424,1.7146 C88.7728,1.79671 89.1173,1.81042 89.4409,1.89253 C89.8199,1.98835 90.1916,2.12523 90.5706,2.24843 C90.7634,2.31003 90.9564,2.35795 91.1492,2.41955 C91.7347,2.60433 92.3339,2.77545 92.9125,2.9876 C93.2154,3.10397 93.4842,3.29561 93.7734,3.44619 C94.2212,3.66521 94.6756,3.87052 95.1165,4.10322 C95.3712,4.24012 95.5918,4.43176 95.8327,4.58918 C96.3563,4.92454 96.9073,5.21884 97.3964,5.58844 C97.9816,6.03332 98.5396,6.51925 99.0631,7.03257 C99.7656,7.71701 100.454,8.42197 101.102,9.16114 C101.66,9.8045 102.204,10.4752 102.665,11.1871 C103.058,11.7893 103.327,12.4738 103.664,13.1103 C103.919,13.5962 104.222,14.0685 104.422,14.5818 C104.656,15.1978 105.035,15.7522 105.11,16.4365 C105.145,16.6966 105.359,16.9225 105.448,17.1826 C105.524,17.4017 105.531,17.6481 105.579,17.8807 C105.661,18.2433 105.758,18.6063 105.834,18.9759 C105.958,19.6054 106.061,20.2284 106.171,20.8579 C106.185,20.9744 106.178,21.0907 106.185,21.2071 C106.247,22.0627 106.364,22.9317 106.392,23.8011 C106.392,24.8481 106.13,25.8817 106.199,26.9425 C106.226,27.3051 106.137,27.6885 106.047,28.0512 C105.896,28.6947 105.696,29.3244 105.524,29.9609 C105.434,30.2893 105.414,30.6385 105.31,30.9602 C105.165,31.3983 104.952,31.8226 104.794,32.2674 C104.649,32.6642 104.566,33.0888 104.408,33.4789 C104.236,33.9032 104.009,34.3071 103.795,34.7176 C103.698,34.8886 103.588,35.0461 103.485,35.2103 C103.209,35.6554 102.927,36.1001 102.659,36.5519 C102.492,36.8226 102.339,37.1063 102.186,37.384 C102.175,37.4042 102.165,37.4258 102.149,37.4417 C101.866,37.7839 101.57,38.1124 101.288,38.4546 C100.985,38.8172 100.709,39.1939 100.386,39.5361 C99.8482,40.1109 99.3456,40.7543 98.7051,41.1991 C98.333,41.4592 98.0507,41.7947 97.6787,42.034 C97.2103,42.3353 96.7352,42.6158 96.2668,42.9238 C95.9911,43.1018 95.7364,43.3277 95.461,43.5056 C95.1715,43.6836 94.8548,43.8341 94.5516,43.9916 C94.1107,44.2242 93.677,44.4571 93.2292,44.6692 C93.0227,44.7651 92.7952,44.806 92.5818,44.8881 C92.4165,44.9431 92.2582,45.0252 92.0927,45.0798 C91.535,45.2715 90.9771,45.4357 90.4329,45.6342 C89.7028,45.908 88.959,46.1134 88.1736,46.1818 C87.6848,46.2297 87.2094,46.4214 86.7272,46.5444 C86.679,46.5582 86.624,46.5582 86.5758,46.5582 C85.1225,46.6061 83.669,46.6815 82.2089,46.7019 C81.5133,46.7087 80.7901,46.6949 80.1289,46.5173 C79.7293,46.4077 79.33,46.4623 78.9717,46.3393 C78.4344,46.1543 77.8836,46.1134 77.3394,45.9968 C77.0638,45.9354 76.8228,45.7575 76.5543,45.6616 C76.3062,45.5795 76.0377,45.5591 75.7895,45.4699 C75.2112,45.2511 74.6464,44.9977 74.0678,44.7718 C73.8472,44.683 73.6131,44.6418 73.3997,44.5392 C72.9382,44.3133 72.4835,44.0737 72.0291,43.8341 C71.4505,43.5194 70.865,43.2251 70.3071,42.8829 C70.011,42.7049 69.7904,42.4037 69.4875,42.2394 C68.9089,41.9247 68.5437,41.3633 68.0136,41.0282 C67.3662,40.6106 66.9253,40.0083 66.3811,39.5019 C66.0022,39.146 65.651,38.7558 65.3478,38.3383 C64.9898,37.8456 64.7557,37.2705 64.3699,36.812 C64.0739,36.4628 63.8326,36.0864 63.6192,35.6896 C63.454,35.3883 63.2816,35.0803 63.1163,34.7723 C62.8754,34.3342 62.6204,33.9032 62.4001,33.4514 C62.3037,33.253 62.283,33.0134 62.2073,32.7945 C62.166,32.6779 62.0693,32.5821 62.028,32.4658 C61.8972,32.0757 61.787,31.6788 61.6562,31.2887 C61.5461,30.967 61.3943,30.6522 61.2911,30.3305 C61.2222,30.0976 61.1947,29.8513 61.1465,29.6119 C61.0776,29.249 61.0019,28.8931 60.9262,28.5304 C60.7951,27.9349 60.8229,27.2917 60.678,26.7236 C60.561,26.2581 60.5679,25.8201 60.5472,25.3683 C60.5128,24.5471 60.5128,23.712 60.5403,22.8908 C60.5817,21.9461 60.6367,21.0016 60.7469,20.0642 C60.7882,19.6533 60.9881,19.2632 61.1052,18.8593 C61.1258,18.798 61.112,18.7293 61.1189,18.6609 C61.174,18.2571 61.1809,17.8465 61.2911,17.4564 C61.415,17.0183 61.6356,16.6145 61.7939,16.1902 C61.8903,15.9301 61.9385,15.6564 62.028,15.3894 C62.0693,15.2525 62.1729,15.1362 62.2142,15.0061 C62.4276,14.3354 62.7168,13.6989 63.0888,13.0966 C63.3849,12.6038 63.5986,12.0631 63.8808,11.5566 C64.0185,11.3034 64.2391,11.1049 64.4043,10.8653 C64.5971,10.5848 64.7695,10.2836 64.9485,9.99614 C64.9761,9.95508 64.9967,9.90715 65.0311,9.87293 C66.1195,8.72994 67.1525,7.52537 68.3097,6.45765 C68.785,6.01961 69.3085,5.56789 69.8799,5.2257 C70.4585,4.87664 71.0647,4.56864 71.6502,4.22642 C72.2356,3.89106 72.7936,3.52146 73.3859,3.19978 C73.6889,3.03553 74.0403,2.94655 74.3638,2.82334 C74.8392,2.64541 75.3145,2.46061 75.7964,2.29635 C76.0859,2.20053 76.4026,2.19369 76.6714,2.07049 C77.188,1.83093 77.7525,1.85147 78.2829,1.70773 C79.0543,1.50241 79.8122,1.33129 80.618,1.33816 C81.1002,1.33816 81.5752,1.22179 82.0574,1.19441 C82.5328,1.16703 83.015,1.18757 83.4969,1.18757 C84.0342,1.18757 84.5646,1.16703 85.095,1.19441 Z M135.321,0.960663 C136.548,0.964643 137.876,0.847075 139.059,1.17528 C139.734,1.36008 140.423,1.40114 141.105,1.5175 C141.615,1.60649 142.104,1.84602 142.606,2.00344 C142.923,2.09926 143.254,2.14718 143.571,2.23614 C143.695,2.27722 143.798,2.37304 143.922,2.4141 C144.459,2.61258 145.01,2.76316 145.527,2.98902 C145.954,3.17382 146.333,3.45444 146.746,3.67346 C147.242,3.93354 147.751,4.15256 148.24,4.41947 C148.475,4.53584 148.702,4.70693 148.909,4.87119 C149.645,5.44611 150.389,6.01419 151.099,6.61649 C151.636,7.06136 152.166,7.54046 152.635,8.05378 C153.089,8.54655 153.468,9.10096 153.888,9.62795 C154.109,9.89489 154.357,10.1481 154.563,10.4356 C154.636667,10.5382667 154.705667,10.6439667 154.772333,10.7511852 L155.163,11.4006 C155.362,11.7291 155.576,12.0508 155.755,12.3862 C155.996,12.8379 156.189,13.2965 156.409,13.7482 C156.533,14.0083 156.678,14.2478 156.802,14.5011 C156.926,14.7611 157.036,15.0281 157.146,15.3018 C157.325,15.7604 157.518,16.2052 157.67,16.6707 C157.78,17.0061 157.808,17.3688 157.89,17.711 C157.98,18.0806 158.097,18.4366 158.207,18.7992 C158.214,18.8267 158.227,18.8471 158.227,18.8746 C158.296,19.3673 158.365,19.8603 158.434,20.3667 C158.703,22.2556 158.558,24.1515 158.579,26.0475 C158.586,26.5948 158.558,27.1629 158.407,27.6901 C158.234,28.2991 158.11,28.9083 158.014,29.5378 C157.938,30.0375 157.663,30.503 157.504,30.9957 C157.415,31.2628 157.415,31.55 157.325,31.8171 C157.208,32.1798 157.05,32.5357 156.898,32.8916 C156.685,33.3843 156.471,33.884 156.23,34.37 C156.044,34.7396 155.803,35.0885 155.583,35.4445 C155.493,35.595 155.404,35.7387 155.307,35.8895 C155.094,36.2317 154.88,36.5669 154.674,36.9161 C154.357,37.4567 153.902,37.9015 153.551,38.4012 C152.931,39.291 152.098,39.9549 151.361,40.7147 L150.994828,41.0809625 C150.620437,41.439575 150.22425,41.77715 149.832,42.1109 C149.611,42.2956 149.322,42.3982 149.081,42.549 C148.989,42.6059667 148.898667,42.6652444 148.809148,42.7255556 L148.275,43.0896 C148.089,43.2129 147.903,43.3222 147.71,43.4318 C147.325,43.6577 146.946,43.8973 146.546,44.0957 C146.209,44.2667 145.843,44.3762 145.492,44.5267 C145.168,44.6638 144.859,44.8143 144.542,44.9648 C144.349,45.0539 144.163,45.1497 143.963,45.2114 C143.681,45.3002 143.385,45.3686 143.095,45.4577 C142.903,45.5124 142.717,45.5878 142.531,45.6494 C142.201,45.7562 141.878,45.8633 141.548,45.9703 C141.533,45.9754 141.517,45.9787 141.502,45.9829 C141.495,45.9849 141.487,45.9852 141.479,45.9863 C141.022,46.0544 140.564,46.129 140.106,46.183 C139.576,46.2447 139.011,46.19 138.529,46.368 C137.918,46.5967 137.301,46.537 136.688,46.5053 C136.01,46.47 135.328,46.5734 134.651,46.5322 C133.756,46.4706 132.854,46.4227 131.958,46.3268 C131.331,46.2584 130.711,46.1351 130.098,45.9779 C129.589,45.8479 129.1,45.6287 128.597,45.4645 C128.177,45.3277 127.75,45.2181 127.323,45.0948 C127.144,45.0402 126.951,44.9785 126.785,44.8964 C126.165,44.5954 125.552,44.2941 124.932,43.9861 C124.306,43.6781 123.672,43.3908 123.073,43.0484 C122.749,42.8637 122.515,42.5078 122.177,42.364 C121.743,42.186 121.537,41.7071 121.048,41.6179 C120.903,41.5908 120.8,41.3649 120.676,41.2416 C119.767,40.3313 118.844,39.4277 117.935,38.5108 C117.659,38.2369 117.418,37.9359 117.198,37.6209 C117.032,37.3813 116.929,37.0941 116.778,36.834 C116.647,36.6148 116.509,36.4027 116.35,36.2042 C115.793,35.5128 115.538,34.6642 115.118,33.9115 C114.822,33.3706 114.594,32.8232 114.401,32.2551 C114.284,31.913 114.181,31.5708 114.05,31.242 C113.947,30.989 113.788,30.7561 113.699,30.496 C113.609,30.2566 113.575,29.9896 113.527,29.7295 C113.451,29.3256 113.389,28.9083 113.313,28.4975 C113.21,27.9569 113.079,27.4162 112.989,26.8756 C112.948,26.5881 112.969,26.2801 112.962,25.9858 C112.962,25.6299 113.086,25.2056 112.934,24.918 C112.666,24.3979 112.7,23.8435 112.803,23.3713 C112.996,22.502 112.927,21.6396 112.976,20.7773 C112.996,20.4281 113.051,20.0791 113.134,19.7369 C113.23,19.3194 113.375,18.9088 113.492,18.4912 C113.561,18.2449 113.609,17.9848 113.664,17.7247 C113.733,17.3962 113.768,17.0541 113.871,16.7391 C114.016,16.301 114.284,15.8973 114.374,15.4524 C114.443,15.0965 114.608,14.8022 114.746,14.4874 C114.897,14.1178 115.035,13.7345 115.193,13.3649 C115.352,13.009 115.51,12.6531 115.71,12.3178 C115.951,11.9139 116.227,11.5307 116.488,11.1405 C116.709,10.812 116.908,10.4766 117.143,10.1686 C117.446,9.78537 117.804,9.43631 118.079,9.03251 C118.713,8.08116 119.588,7.35566 120.407,6.5891 C120.779,6.2332 121.172,5.89098 121.558,5.55563 C121.943,5.22025 122.474,5.06283 122.921,4.79591 C123.156,4.65901 123.342,4.45369 123.569,4.30311 C123.879,4.10463 124.196,3.91299 124.519,3.7419 C124.85,3.55709 125.187,3.35862 125.546,3.25593 C125.952,3.14643 126.241,2.82476 126.696,2.76316 C127.089,2.71523 127.44,2.42777 127.819,2.26352 C128.025,2.17456 128.245,2.1061 128.466,2.0582 C128.769,1.98976 129.086,1.96922 129.382,1.88708 C129.726,1.79126 130.05,1.6407 130.388,1.52434 C130.408,1.5175 130.436,1.5175 130.463,1.51067 C130.959,1.4559 131.476,1.46958 131.937,1.3327 C132.612,1.12052 133.329,1.30532 133.962,1.12052 C134.418,0.989445 134.871,0.959205 135.321,0.960663 Z M7.7203037,2.0375237 L9.07513,2.04841 C9.32998,2.04841 9.60548,2.10318 9.8259,2.21954 C9.97742,2.29482 10.1014,2.51384 10.1289,2.68493 C10.1978,3.15035 10.4733,3.51309 10.6663,3.92375 C10.8522,4.30019 10.921,4.73136 11.0518,5.12834 C11.1,5.27206 11.1758,5.40896 11.2449,5.55268 C11.4239,5.92228 11.6235,6.27818 11.775,6.65462 C11.9267,7.05158 11.9956,7.47594 12.1539,7.85922 C12.3605,8.36567 12.6362,8.83109 12.8496,9.33073 C13.0079,9.70714 13.1043,10.1041 13.2354,10.4942 C13.2905,10.6722 13.3593,10.8365 13.4351,11.0007 C13.6003,11.3566 13.8068,11.6988 13.9517,12.0616 C14.1582,12.5954 14.3304,13.1361 14.5234,13.6768 C14.5509,13.7658 14.6542,13.8274 14.6886,13.9095 C14.8195,14.2244 14.9365,14.5392 15.0604,14.8609 C15.2122,15.2373 15.3705,15.6138 15.522,15.997 C15.6872,16.4282 15.8321,16.8663 16.0042,17.2976 C16.1901,17.7765 16.4173,18.235 16.6103,18.7143 C16.7824,19.1453 16.9201,19.5971 17.0922,20.0284 C17.2715,20.4869 17.485,20.9387 17.664,21.3972 C17.8501,21.8489 18.0016,22.3142 18.1875,22.7659 C18.3045,23.0535 18.4494,23.3273 18.5733,23.6078 C18.7454,23.9842 18.9175,24.3539 19.083,24.7302 C19.1863,24.9631 19.2965,25.1957 19.3929,25.4354 C19.4824,25.6338 19.5374,25.8459 19.6201,26.0444 C19.7925,26.4687 19.9852,26.8863 20.1505,27.3176 C20.3501,27.8307 20.5294,28.3646 20.7222,28.8848 C20.9631,29.5282 21.225,30.1714 21.4729,30.8082 C21.6588,31.2734 21.8243,31.7456 22.0171,32.2111 C22.1272,32.4849 22.2718,32.745 22.4029,33.0188 C22.575,33.3747 22.816,33.7099 22.8917,34.0863 C22.9468,34.3809 22.8022,34.716 22.7058,35.0173 C22.5681,35.4279 22.3822,35.818 22.2236,36.2219 C22.1066,36.5094 21.9895,36.7967 21.8794,37.0909 C21.8036,37.3031 21.7554,37.5155 21.6797,37.7207 C21.5211,38.1657 21.3421,38.6105 21.1837,39.0623 C21.0873,39.3495 21.0254,39.6441 20.9287,39.9313 C20.8736,40.0888 20.7841,40.2393 20.7291,40.3968 C20.6051,40.7528 20.5501,41.1496 20.3642,41.4646 C20.0472,41.9915 20.1092,42.6554 19.6614,43.1209 C19.5443,43.2372 19.5443,43.4561 19.4961,43.6341 C19.4204,43.9079 19.386,44.1954 19.2827,44.4622 C19.0899,44.9552 18.89,45.4479 18.6559,45.9271 C18.5251,46.2007 18.1875,46.1939 17.9809,46.1048 C17.7744,46.016 17.5676,45.7968 17.4712,45.5847 C17.244,45.0852 17.1063,44.5514 16.8926,44.0517 C16.6792,43.559 16.3966,43.0935 16.1901,42.6008 C16.0248,42.2174 15.9491,41.7998 15.8045,41.4097 C15.6941,41.1017 15.522,40.8144 15.398,40.5064 C15.2259,40.1026 15.0811,39.685 14.9158,39.2744 C14.8608,39.1306 14.7781,38.9939 14.7231,38.8501 C14.5303,38.3571 14.3648,37.8507 14.1582,37.3647 C13.9448,36.8721 13.6691,36.4066 13.4626,35.9139 C13.3042,35.5375 13.2147,35.1199 13.0768,34.7231 C13.0355,34.6065 12.9391,34.5109 12.8909,34.3943 C12.6981,33.9154 12.5329,33.4294 12.3329,32.9572 C12.0576,32.2932 11.7475,31.6498 11.479,30.9858 C11.2724,30.4794 11.0931,29.9593 10.9004,29.4461 C10.7076,28.9327 10.549,28.4193 10.3356,27.9198 C10.1221,27.4269 9.83967,26.9616 9.63304,26.4619 C9.56186333,26.2885333 9.49528111,26.1121111 9.4309963,25.9341593 L9.05448,24.8603 C9.03611,24.8101333 9.01468111,24.7607111 8.99172259,24.711537 L8.84785,24.4155 C8.55167,23.772 8.16596,23.1493 8.00067,22.4787 C7.86292,21.924 7.53919,21.4588 7.40144,20.9179 C7.29812,20.5211 7.05704,20.1584 6.91241,19.7683 C6.754,19.344 6.63002,18.906 6.47159,18.4884 C6.37518,18.2213 6.23054,17.9682 6.11344,17.7081 C5.99635,17.4481 5.89302,17.181 5.77595,16.9209 C5.61064,16.5378 5.42467,16.1681 5.27315,15.778 C5.11474,15.3674 4.99764,14.943 4.83921,14.5324 C4.68769,14.1628 4.48795,13.8137 4.32955,13.4373 C4.18488,13.1019 4.06781,12.746 3.94383,12.4038 C3.75786,11.8836 3.57878,11.3498 3.37904,10.8365 C3.2826,10.5969 3.10354,10.3916 3.00709,10.1589 C2.75913,9.56343 2.53185,8.96797 2.30457,8.36567 C2.11172,7.85235 1.96017,7.33219 1.73977,6.83255 C1.54003,6.35346 1.25073,5.90858 1.04411,5.43634 C0.885704,5.05307 0.789263,4.64241 0.665283,4.24543 C0.637744,4.17015 0.596407,4.09487 0.568868,4.01957 C0.403551,3.64999 0.176271,3.29407 0.0936263,2.91766 C-0.016585,2.41118 0.355358,2.04841 0.885705,2.04841 C2.26324,2.04158 3.64077,2.04158 5.0183,2.04158 C6.36829,2.04158 7.71826,2.0279 9.07513,2.04841 Z M30.6608,1.8671912 C30.9915,1.86067 31.2187,1.96333 31.3633,2.23024 C31.4941,2.46981 31.5701,2.72988 31.6803,2.98312 C31.7353,3.10632 31.818,3.22266 31.873,3.34586 C32.0452,3.7223 32.2176,4.09874 32.3759,4.48202 C32.4585,4.68733 32.4861,4.91319 32.5756,5.11853 C32.7477,5.52233 32.9752,5.89877 33.1335,6.30943 C33.285,6.69954 33.3814,7.1102 33.5124,7.50718 C33.5675,7.6509 33.6295,7.79464 33.7121,7.92468 C34.1648,8.56745 34.2979,9.50813 34.6638,10.2058 C34.7883,10.4426 34.9067,10.6819 34.9657,10.943 C35.0414,11.292 35.2204,11.6206 35.3581,11.9559 C35.5787,12.5103 35.8059,13.0647 36.04,13.6123 C36.2124,14.0161 36.4671,14.4062 36.5497,14.8305 C36.6599,15.3849 36.9906,15.8367 37.149,16.3636 C37.2729,16.7812 37.5348,17.1506 37.6931,17.5545 C37.8515,17.9446 37.941,18.3692 38.0859,18.766 C38.1891,19.074 38.3337,19.3545 38.4714,19.6421 C38.6366,20.0185 38.809,20.3881 38.9743,20.7645 C39.0913,21.0109 39.2015,21.2572 39.2978,21.5105 C39.3807,21.7294 39.4427,21.9623 39.5184,22.1812 C39.7043,22.7014 39.8696,23.2285 40.0833,23.7417 C40.2898,24.2139 40.5721,24.6589 40.7789,25.1379 C40.9441,25.5213 41.0336,25.9319 41.1713,26.329 C41.2126,26.4453 41.3162,26.5479 41.3575,26.6642 C41.5503,27.1981 41.6948,27.7457 41.922,28.2658 C42.1839,28.8748 42.5144,29.4499 42.797,30.0455 C42.8865,30.2439 42.9209,30.4628 43.0035,30.6682 C43.1618,31.0788 43.3618,31.4759 43.5201,31.8865 C43.7267,32.4133 43.9126,32.9335 44.0643,33.4744 C44.1469,33.6933 44.264,33.9259 44.2502,34.1451 C44.2295,34.4668 44.1194,34.7815 44.023,35.0895 C43.9335,35.3908 43.8299,35.6851 43.7129,35.9793 C43.6785,36.0752 43.5821,36.1436 43.5477,36.2394 C43.4169,36.5883 43.286,36.9443 43.1756,37.3002 C43.093,37.574 43.0517,37.8683 42.9415,38.1353 C42.797,38.498 42.597,38.8402 42.4456,39.2028 C42.3629,39.3808 42.3354,39.5795 42.2803,39.7642 C42.1495,40.1748 42.0256,40.5923 41.8738,40.9962 C41.7155,41.4205 41.509,41.8311 41.3506,42.2624 C41.2057,42.6455 41.1231,43.0494 40.9854,43.4327 C40.8271,43.8845 40.5858,44.3226 40.4826,44.7811 C40.3862,45.1916 40.2347,45.5476 39.9246,45.8418 C39.6424,46.1089 39.1188,46.0402 38.9674,45.6981 C38.7333,45.1644 38.492,44.6373 38.2786,44.1034 C38.079,43.597 37.9203,43.0701 37.7138,42.5704 C37.5486,42.1733 37.3073,41.7969 37.149,41.393 C36.9906,41.0029 36.9011,40.5856 36.7703,40.1748 C36.7218,40.0243 36.6392,39.8805 36.5704,39.73 C36.3983,39.3673 36.1366,39.0114 36.0675,38.628 C35.978,38.1625 35.7302,37.7999 35.5167,37.396 C35.3237,37.0264 35.2617,36.5883 35.1309,36.1915 C35.0827,36.0477 34.9932,35.9109 34.9381,35.7672 C34.6969,35.1716 34.4766,34.5626 34.2287,33.9738 C34.077,33.6182 33.8704,33.2827 33.7259,32.9201 C33.5606,32.4887 33.4571,32.044 33.2918,31.6127 C33.1542,31.2567 32.9545,30.9145 32.8028,30.5586 C32.6582,30.196 32.5411,29.8263 32.4034,29.4704 C32.3552,29.3336 32.2726,29.1966 32.2107,29.0598 C32.0314,28.6901 31.8386,28.3275 31.6871,27.9441 C31.5357,27.554 31.439,27.1364 31.3082,26.7328 C31.2531,26.5683 31.1705,26.4041 31.1017,26.2469 C30.8122,25.5967 30.5093,24.9532 30.2339,24.296 C30.0271,23.7829 29.8825,23.2422 29.6691,22.7221 C29.4554,22.2224 29.18,21.7569 28.9666,21.2572 C28.8148,20.8808 28.7184,20.477 28.5876,20.0868 C28.5257,19.8951 28.4499,19.7037 28.3604,19.5188 C28.2018,19.1766 28.0021,18.8481 27.8645,18.4992 C27.7061,18.0816 27.6097,17.6298 27.4511,17.2123 C27.2859,16.7675 27.0724,16.3432 26.8794,15.9051 C26.7692,15.645 26.6797,15.3849 26.5627,15.1317 C26.3286,14.6457 26.0805,14.1666 25.8602,13.6739 C25.7638,13.4617 25.7362,13.229 25.6605,13.0168 L25.6605,13.0168 L25.1989,11.8807 C25.0337,11.4426 24.8957,10.9909 24.7236,10.5597 C24.5377,10.0874 24.3103,9.63573 24.1175,9.1635 C23.9454,8.7323 23.8077,8.28742 23.6353,7.85624 C23.5114,7.55508 23.3599,7.26762 23.2291,6.97332 C23.0638,6.59688 22.9052,6.22044 22.74,5.844 C22.6849,5.70713 22.6092,5.58393 22.561,5.45389 C22.4371,5.12537 22.3197,4.80369 22.1958,4.48202 L22.1958,4.48202 L21.7276,3.34586 C21.631,3.11316 21.5208,2.88046 21.4589,2.63406 C21.3831,2.31238 21.7965,1.87434 22.1545,1.87434 L22.1545,1.87434 L26.4869,1.87434 C27.8782,1.87434 29.2695,1.88802 30.6608,1.8671912 Z M210.815,1.87988551 C213.57,1.90068 216.332,1.88701 219.087,1.88701 C219.749,1.88701 220.086,2.16763 220.327,2.7699 C220.513,3.22848 220.795,3.64598 221.023,4.09086 C221.161,4.36461 221.271,4.66577 221.415,4.93269 C221.636,5.32967 221.877,5.70608 222.104,6.10307 C222.249,6.34947 222.38,6.60271 222.504,6.85595 C222.662,7.1913 222.807,7.52668 222.958,7.8552 C223.165,8.30692 223.337,8.77918 223.613,9.18297 C224.005,9.76475 224.122,10.4765 224.646,10.9899 C224.866,11.2089 224.935,11.5716 225.087,11.8591 C225.314,12.304 225.562,12.7283 225.782,13.1663 C225.934,13.4607 226.037,13.7755 226.182,14.0629 C226.395,14.4941 226.636,14.9116 226.864,15.3291 C227.118,15.7945 227.373,16.2667 227.621,16.739 C227.924,17.307 228.234,17.8751 228.523,18.4502 C228.668,18.7307 228.772,19.032 228.916,19.3125 C229.123,19.6822 229.364,20.0244 229.57,20.4008 C229.729,20.6883 229.853,21.0031 230.004,21.2973 C230.287,21.8517 230.59,22.3993 230.872,22.9604 C231.086,23.3712 231.279,23.7818 231.485,24.1924 C231.602,24.4253 231.74,24.6511 231.864,24.8838 C232.036,25.1985 232.215,25.5135 232.381,25.8349 C232.67,26.3896 232.952,26.9369 233.228,27.4983 C233.276,27.6078 233.276,27.7513 233.276,27.8747 L233.276,44.8484 C233.276,45.3343 232.801,45.8203 232.325,45.8203 L232.325,45.8203 L224.756,45.8203 C224.095,45.8203 223.792,45.5123 223.792,44.8484 C223.792,39.4347 223.785,34.0209 223.799,28.607 C223.805,28.0938 223.53,27.7104 223.337,27.2928 C223.041,26.6564 222.69,26.0474 222.338,25.4314 C222.208,25.1985 222.021,25.0001 221.877,24.7675 C221.533,24.2061 221.188,23.6518 220.878,23.0699 C220.548,22.4539 220.286,21.8037 219.941,21.2015 C219.645,20.6746 219.253,20.1954 218.943,19.6752 C218.715,19.2851 218.543,18.854 218.33,18.4569 C218.13,18.0738 217.91,17.6972 217.689,17.3278 C217.476,16.9511 217.276,16.5747 217.028,16.2258 C216.787,15.8767 216.752,15.4318 216.388,15.1238 C216.167,14.9458 216.091,14.59 215.947,14.3093 C215.823,14.0561 215.692,13.796 215.547,13.5496 C215.32,13.1458 215.127,12.7078 214.838,12.3519 C214.48,11.907 214.438,11.3047 213.963,10.9214 C213.75,10.7503 213.715,10.3671 213.563,10.0864 C213.371,9.71683 213.13,9.36777 212.93,8.99133 C212.647,8.47801 212.393,7.95786 212.117,7.44454 C212.028,7.28028 211.917,7.1297 211.821,6.96544 C211.607,6.57533 211.401,6.18521 211.18,5.79506 C211.063,5.58291 210.912,5.39127 210.795,5.17225 C210.616,4.85057 210.512,4.46043 210.271,4.19351 C209.996,3.88551 209.844,3.53645 209.665,3.18742 C209.52,2.8931 209.472,2.66724 209.713,2.35926 C210.016,1.98966 210.347,1.8733 210.815,1.87988551 Z M167.491,2.036625 C172.76,2.05031 178.029,2.00925 183.298,2.07769 C184.07,2.09139 184.876,2.20089 185.668,2.24195 C186.053,2.26933 186.446,2.31725 186.825,2.39937 C187.321,2.50202 187.81,2.6526 188.306,2.76213 C188.65,2.83741 189.002,2.87163 189.346,2.93323 C189.966,3.04959 190.586,3.15908 191.144,3.48076 C191.329,3.58342 191.571,3.60396 191.777,3.66556 C191.97,3.72716 192.156,3.78876 192.342,3.8572 C192.81,4.042 193.286,4.20626 193.74,4.41844 C194.277,4.66482 194.808,4.91806 195.304,5.22606 C195.958,5.62301 196.571,6.06789 197.191,6.51277 C198.252,7.27249 199.057,8.25806 199.96,9.1615 C200.38,9.58586 200.58,10.2292 201,10.6672 C201.379,11.0574 201.51,11.5501 201.771,11.9814 C201.95,12.2893 202.102,12.6042 202.253,12.9258 C202.432,13.3023 202.604,13.6856 202.756,14.0757 C202.859,14.3289 202.915,14.6095 202.997,14.8765 C203.087,15.1434 203.197,15.4103 203.294,15.6773 C203.314,15.7388 203.328,15.7936 203.342,15.8552 C203.459,16.5259 203.5,17.224 203.727,17.8605 C203.858,18.2164 203.803,18.5656 203.906,18.8941 C204.299,20.1875 204.127,21.5223 204.271,22.8157 C204.368,23.548 204.499,24.2873 204.388,24.9855 C204.258,25.8136 204.258,26.635 204.223,27.4562 C204.209,27.8054 204.147,28.168 204.065,28.5102 C203.968,28.9004 203.81,29.2767 203.7,29.6669 C203.624,29.9474 203.603,30.2419 203.521,30.5225 C203.424,30.8442 203.279,31.1522 203.162,31.4669 C203.094,31.6586 202.997,31.8503 202.997,32.0488 C202.99,32.4251 202.708,32.6785 202.625,32.9865 C202.529,33.3287 202.419,33.6434 202.24,33.9447 C201.957,34.4306 201.689,34.9301 201.413,35.416 C201.193,35.8199 200.965,36.217 200.745,36.6138 C200.724,36.648 200.703,36.6755 200.676,36.7027 C200.311,37.1273 199.918,37.5308 199.588,37.9826 C199.092,38.6603 198.506,39.2421 197.893,39.8102 C197.625,40.0565 197.322,40.2687 197.032,40.5013 C196.654,40.8163 196.302,41.1789 195.882,41.439 C195.49,41.6854 195.118,41.9729 194.677,42.1783 C194.353,42.3288 194.029,42.5752 193.678,42.7394 C193.244,42.9516 192.824,43.1845 192.397,43.4103 C192.073,43.5813 191.757,43.7593 191.426,43.9098 C191.192,44.0126 190.944,44.0673 190.696,44.1494 C190.393,44.259 190.096,44.3753 189.78,44.4641 C189.284,44.6079 188.781,44.7175 188.285,44.8542 C187.927,44.9501 187.582,45.0734 187.231,45.1897 C187.19,45.2101 187.142,45.2376 187.094,45.2376 C186.79,45.2581 186.508,45.2923 186.205,45.4018 C185.744,45.5661 185.206,45.5523 184.704,45.5868 C178.911,46.0111 173.112,45.6689 167.312,45.7782 C166.727,45.792 166.265,45.3267 166.265,44.7516 L166.265,44.7516 L166.265,24.0068 C166.265,17.094 166.265,10.1813 166.258,3.26174 C166.258,2.59784 166.796,2.036625 167.491,2.036625 Z M85.1776,9.73606 C83.8483,9.79082 82.5259,9.59234 81.1966,9.84555 C80.5835,9.96192 79.9705,10.003 79.385,10.2494 C79.0474,10.3931 78.6756,10.4752 78.3311,10.6121 C77.725,10.8517 77.0913,11.0023 76.5681,11.4403 C76.1616,11.7825 75.6037,11.9467 75.1975,12.289 C74.5982,12.7954 74.0403,13.3704 73.5374,13.9727 C73.1103,14.486 72.7523,15.0677 72.4146,15.6495 C72.0704,16.2381 71.781,16.8541 71.4849,17.4631 C71.4092,17.6206 71.3885,17.8056 71.3266,17.9698 C71.1542,18.3941 70.9063,18.791 70.8099,19.229 C70.6929,19.7904 70.5549,20.3514 70.4172,20.9128 C70.252,21.5834 70.252,22.302 70.2038,23.0001 C70.1763,23.3698 70.1831,23.7462 70.2038,24.1228 C70.2589,25.0673 70.3346,26.0118 70.3966,26.9562 C70.4035,26.9974 70.4035,27.0383 70.4172,27.0725 C70.5343,27.4697 70.6791,27.8598 70.7824,28.2633 C70.9132,28.7563 71.0027,29.2695 71.1611,29.7554 C71.299,30.1797 71.4987,30.5836 71.6915,30.9874 C71.836,31.2887 72.0084,31.583 72.1737,31.8772 C72.4009,32.2811 72.6215,32.6779 72.9519,33.0271 C73.2276,33.3214 73.3446,33.7662 73.6338,34.0262 C74.116,34.4643 74.4809,35.0052 75.1008,35.3404 C75.5486,35.58 75.9344,35.9976 76.4163,36.2506 C76.8297,36.4698 77.2155,36.7366 77.6217,36.9558 C77.7941,37.0446 78.0075,37.0651 78.1934,37.1404 C78.4691,37.243 78.7307,37.3868 79.013,37.4826 C79.2887,37.5718 79.5985,37.5648 79.8604,37.6743 C80.2803,37.8456 80.6937,38.0028 81.1621,38.0303 C81.527,38.0577 81.8853,38.1603 82.2433,38.174 C83.0009,38.1945 83.7863,38.3178 84.4957,38.1398 C85.1088,37.9823 85.7562,38.2082 86.3486,37.859 C86.6515,37.6811 87.0993,37.7427 87.4573,37.6264 C88.0703,37.428 88.6696,37.1884 89.2619,36.935 C89.6064,36.7845 89.9369,36.5861 90.2539,36.3739 C90.4948,36.2097 90.6738,35.9426 90.9289,35.8401 C91.4521,35.6279 91.8655,35.2582 92.2513,34.8956 C92.6299,34.5329 93.0295,34.177 93.3187,33.6841 C93.5393,33.3077 93.9386,32.9997 94.1799,32.6028 C94.3726,32.2878 94.531,31.9594 94.71,31.6376 C94.8686,31.3434 95.0201,31.0491 95.1578,30.7411 C95.3918,30.2142 95.6606,29.7075 95.7983,29.1394 C95.8603,28.8589 95.819,28.4962 95.9842,28.3113 C96.3218,27.9486 96.1704,27.4968 96.2943,27.1 C96.5215,26.4086 96.4595,25.6216 96.5008,24.8756 C96.5209,24.576 96.5019,24.2767 96.5072,23.9648 C96.5075,23.9499 96.5196,23.9379 96.5342,23.9379 C96.5499,23.9379 96.562,23.9244 96.5612375,23.9087 C96.4926,22.8233 96.4177,21.7381 96.3494,20.6527 C96.3494,20.591 96.3356,20.5294 96.315,20.4677 C96.1979,20.1255 96.074,19.7834 95.9636,19.4344 C95.7639,18.8047 95.5642,18.1682 95.3643,17.5318 C95.3368,17.4427 95.2955,17.3538 95.261,17.2647 C95.1647,17.0458 95.0958,16.8062 94.9788,16.594 C94.7791,16.2381 94.5447,15.9096 94.3244,15.5674 C94.2143,15.3963 94.097,15.2252 93.9799,15.0609 C93.7114,14.6708 93.4636,14.2601 93.1672,13.8974 C92.9194,13.5894 92.6162,13.3156 92.3201,13.0487 C91.8861,12.6722 91.4521,12.2753 90.9839,11.9331 C90.5499,11.6114 90.0746,11.3376 89.5996,11.0639 C89.3101,10.8927 89.0003,10.7422 88.6902,10.6258 C88.4079,10.5095 88.0979,10.4616 87.8087,10.3726 C87.2989,10.2152 86.803,10.0167 86.2935,9.88664 C85.9352,9.79082 85.5494,9.71552 85.1776,9.73606 Z M136.628,9.51161 C135.498,9.45685 134.362,9.60057 133.232,9.66903 C133.184,9.67587 133.136,9.68271 133.088,9.69638 C132.736,9.79907 132.392,9.91541 132.034,10.0112 C131.731,10.0934 131.414,10.1208 131.118,10.2302 C130.704,10.374 130.291,10.5314 129.926,10.7641 C129.575,10.99 129.134,11.0242 128.852,11.3938 C128.707,11.5923 128.432,11.6881 128.218,11.8387 C127.887,12.0577 127.536,12.2493 127.226,12.5025 C126.854,12.8037 126.51,13.1528 126.159,13.4881 C126.007,13.6319 125.869,13.7893 125.752,13.9604 C125.532,14.282 125.332,14.6174 125.126,14.9391 C124.967,15.1855 124.774,15.425 124.657,15.6851 C124.464,16.0959 124.14,16.4243 124.03,16.8966 C123.899,17.403 123.541,17.848 123.376,18.3474 C123.142,19.0593 123.073,19.8123 122.832,20.5309 C122.687,20.9552 122.646,21.4275 122.667,21.8722 C122.722,23.3371 122.474,24.8017 122.804,26.2526 C122.894,26.636 122.756,27.0191 122.976,27.423 C123.211,27.8543 123.231,28.3882 123.355,28.8741 C123.41,29.0726 123.493,29.2573 123.555,29.4557 C123.644,29.7502 123.714,30.0649 123.838,30.3525 C123.961,30.6535 124.175,30.9273 124.285,31.2353 C124.492,31.8238 124.836,32.3168 125.201,32.8095 C125.621,33.3638 126.035,33.9182 126.503,34.4383 C126.827,34.8013 127.226,35.0955 127.612,35.3898 C127.963,35.6636 128.335,35.903 128.714,36.1289 C129.182,36.4027 129.651,36.6765 130.146,36.8956 C130.512,37.0599 130.918,37.142 131.297,37.272 C131.813,37.4363 132.316,37.6826 132.847,37.7784 C133.57,37.9085 134.314,37.9289 135.051,37.9906 C135.274,38.0038 135.497,37.9917 135.721,37.9906 C135.739,37.9906 135.754,38.0052 135.756,38.0234 C135.759,38.0424 135.776,38.0576 135.795,38.0562895 C136.768,37.9749 137.741,37.8869 138.715,37.7922 C138.963,37.7647 139.211,37.7031 139.452,37.6347 C139.693,37.573 139.934,37.4979 140.161,37.4021 C140.526,37.2446 140.857,37.0187 141.236,36.9228 C141.732,36.7998 142.159,36.5876 142.558,36.2796 C142.772,36.1151 142.999,35.9716 143.219,35.8279 C143.529,35.6294 143.936,35.4994 144.156,35.2186 C144.7,34.5342 145.479,34.0824 145.926,33.2955 C146.16,32.8779 146.546,32.5357 146.76,32.0702 C147.035,31.4612 147.373,30.8861 147.669,30.2908 C147.758,30.1059 147.786,29.887 147.855,29.6953 C147.965,29.3806 148.117,29.0793 148.206,28.7646 C148.289,28.484 148.309,28.1827 148.385,27.8952 C148.495,27.4914 148.661,27.1083 148.75,26.7044 C148.84,26.3076 148.922,25.89 148.902,25.4929 C148.84,24.2883 149.06,23.077 148.792,21.8518 C148.661,21.2907 148.805,20.6884 148.585,20.1133 C148.447,19.7574 148.461,19.3536 148.351,18.9909 C148.206,18.5254 147.999,18.0806 147.834,17.6221 C147.758,17.403 147.744,17.1566 147.634,16.9582 C147.311,16.3831 146.959,15.8289 146.629,15.2608 C146.574,15.165 146.588,15.0281 146.525,14.9528 C146.188,14.549 145.83,14.1657 145.492,13.7619 C145.224,13.4471 145.031,13.0022 144.7,12.8311 C144.184,12.571 143.88,12.0645 143.357,11.8181 C142.854,11.5786 142.427,11.2158 141.945,10.942 C141.608,10.7504 141.242,10.593 140.884,10.4424 C140.526,10.2918 140.175,10.1207 139.803,10.0249 C139.28,9.88802 138.743,9.84697 138.212,9.69638 C137.709,9.55951 137.144,9.53213 136.628,9.51161 Z M182.431,10.4003 C181.294,10.2908 180.144,10.3319 179,10.3798 C178.617,10.3969 178.23,10.3738 177.846,10.3565 C176.516,10.2963 175.612,11.2836 175.612,12.6384 C175.605,20.2561 175.605,27.8805 175.612,35.5052 C175.612,35.8028 175.578,36.106 175.597,36.4112 C175.632,36.9849 176.157,37.4532 176.721,37.4283 C178.87,37.3324 181.025,37.6746 183.161,37.2503 C183.65,37.1545 184.152,37.1477 184.635,37.0314 C185.172,36.8944 185.695,36.6822 186.226,36.5043 C186.453,36.4292 186.687,36.395 186.894,36.2921 C187.204,36.1416 187.493,35.9499 187.782,35.772 C188.34,35.4435 188.919,35.1355 189.449,34.7658 C189.945,34.4169 190.42,34.0131 190.854,33.5818 C191.378,33.0686 191.887,32.5277 192.328,31.9392 C192.466,31.7545 192.611,31.5628 192.741,31.3711 C192.996,30.9947 193.182,30.5771 193.361,30.1666 C193.534,29.7832 193.899,29.4889 193.885,29.0029 C193.878,28.8045 193.954,28.5786 194.057,28.4077 C194.284,28.031 194.443,27.6546 194.415,27.2028 C194.408,27.1277 194.415,27.0523 194.429,26.9772 C194.539,26.3954 194.697,25.8273 194.753,25.2455 C194.808,24.6707 194.787,24.0819 194.746,23.5001 C194.718,22.932 194.622,22.3642 194.56,21.8029 C194.505,21.3032 194.456,20.8105 194.401,20.3108 C194.401,20.2828 194.387,20.2578 194.373,20.2332 C194.145,19.8313 194.116,19.3736 194.002,18.935 C193.905,18.5449 193.706,18.1822 193.547,17.8059 C193.52,17.7509 193.485,17.6963 193.471,17.6416 C193.347,17.0119 193.031,16.478 192.645,15.9784 C192.493,15.7799 192.37,15.5609 192.225,15.3556 C191.956,14.9723 191.708,14.5685 191.391,14.2194 C191.088,13.884 190.716,13.6034 190.365,13.316 C190.007,13.0148 189.663,12.6726 189.263,12.4399 C188.636,12.0772 187.975,11.7486 187.307,11.4612 C186.784,11.2421 186.212,11.1258 185.682,10.9068 C185.213,10.7083 184.704,10.7699 184.214,10.6057 C183.67,10.4209 183.03,10.4619 182.431,10.4003 Z M49.8557,2.12711 C50.3379,2.15449 50.813,2.31875 51.2952,2.42827 C51.5912,2.49671 51.8944,2.54461 52.1767,2.66097 C52.4248,2.75679 52.652,2.91421 52.8586,3.07846 C53.3064,3.4412 53.7679,3.79026 54.1535,4.21462 C54.4498,4.54314 54.677,4.9538 54.856,5.35759 C55.0835,5.87091 55.3382,6.40477 55.3795,6.95917 C55.4277,7.59569 55.5588,8.26643 55.2762,8.91662 C55.1454,9.22462 55.1454,9.58052 55.049,9.9022 C54.994,10.0938 54.9045,10.2786 54.794,10.4429 C54.4567,10.9288 54.1328,11.4353 53.7335,11.8665 C53.4372,12.1745 53.0241,12.3867 52.6589,12.6262 C52.4386,12.7699 52.2042,12.9 51.9633,13.0095 C51.2676,13.3449 50.5238,13.4407 49.7524,13.3585 C49.4561,13.3585 49.1601,13.3654 48.8569,13.3585 C48.3196,13.3449 47.8514,13.1327 47.3968,12.8794 C47.004,12.6604 46.591,12.4893 46.2189,12.2566 C45.9848,12.106 45.7989,11.887 45.599,11.6886 C45.1171,11.23 44.8345,10.6277 44.5178,10.0596 C44.3799,9.80638 44.4212,9.45732 44.2766,9.20408 C43.9255,8.5744 44.1527,7.9105 44.1045,7.27398 C44.0563,6.66485 44.311,6.11731 44.5454,5.56977 C44.7037,5.21388 44.8414,4.84427 45.0617,4.5363 C45.2961,4.21462 45.6541,3.96822 45.9229,3.65338 C46.4051,3.09901 47.0732,2.83206 47.6859,2.483 C47.9547,2.33245 48.3196,2.3598 48.6435,2.30507 C49.0499,2.23663 49.4561,2.09973 49.8557,2.12711 Z M239.949,2.49741 C240.941,2.00463 241.967,1.89511 243.021,2.00463 C243.51,2.05253 244.054,2.07991 244.481,2.47686 C244.66,2.65483 244.95,2.74381 245.204,2.81908 C245.652,2.94912 245.886,3.31872 246.175,3.61986 C246.582,4.03736 246.954,4.4754 247.326,4.92028 C247.422,5.04348 247.457,5.21457 247.512,5.37199 C247.643,5.72105 247.822,6.05643 247.877,6.41233 C247.945,6.80015 247.898,7.20826 247.897,7.60306 C247.897,7.60692 247.9,7.61006 247.904,7.61006 L247.909,7.61211625 C247.911,7.84747 247.905,8.07775 247.925,8.30134 C247.939,8.73254 247.767,9.09528 247.581,9.47172 C247.498,9.64282 247.484,9.86183 247.395,10.0329 C247.222,10.3546 247.03,10.6763 246.816,10.9706 C246.609,11.2512 246.41,11.5592 246.134,11.7577 C245.549,12.1889 244.984,12.6064 244.268,12.8802 C243.455,13.195 242.663,13.2155 241.843,13.2224 C241.216,13.2292 240.665,12.9691 240.087,12.7843 C239.012,12.4353 238.351,11.6003 237.614,10.8542 C237.401,10.6352 237.297,10.2999 237.16,10.0055 C236.739,9.10895 236.519,8.17814 236.609,7.18572 C236.643,6.74085 236.746,6.31651 236.912,5.89215 C237.022,5.59785 237.139,5.30355 237.27,5.00926 C237.545,4.37274 238,3.8731 238.503,3.42138 C238.93,3.0381 239.426,2.75748 239.949,2.49741 Z"/>
</svg>
