<?xml version="1.0" encoding="UTF-8"?>
<svg width="70px" height="71px" viewBox="0 0 70 71" version="1.1" xmlns="http://www.w3.org/2000/svg" xmlns:xlink="http://www.w3.org/1999/xlink">
    <!-- Generator: Sketch 53 (72520) - https://sketchapp.com -->
    <title>logo-telenet</title>
    <desc>Created with Sketch.</desc>
    <g id="V2" stroke="none" stroke-width="1" fill="none" fill-rule="evenodd">
        <g id="home" transform="translate(-645.000000, -3282.000000)" fill="#D4D4D4" fill-rule="nonzero">
            <g id="clients" transform="translate(90.000000, 3058.000000)">
                <g id="logo" transform="translate(480.000000, 177.000000)">
                    <path d="M134.206681,65.8051434 C133.70287,61.5994769 130.491534,58.2936966 126.326945,57.7842569 C126.326945,57.7842569 119.712172,56.7505033 109.9803,56.7505033 C100.248428,56.7505033 93.6372796,57.7842569 93.6372796,57.7842569 C89.4726909,58.2936966 86.2613544,61.5994769 85.7539197,65.8051434 C85.7539197,65.8051434 84.749924,73.2979975 84.749924,82.2113332 C84.749924,91.1246688 85.7539197,98.6175229 85.7539197,98.6212414 C86.2613544,102.823189 89.4726909,106.12897 93.6372796,106.634691 C93.6372796,106.634691 100.248428,107.672163 109.9803,107.672163 C119.712172,107.672163 126.326945,106.634691 126.326945,106.634691 C130.491534,106.12897 133.70287,102.823189 134.206681,98.6212414 C134.206681,98.6175229 135.214301,91.1246688 135.214301,82.2113332 C135.214301,73.2979975 134.206681,65.8051434 134.206681,65.8051434 M143.45649,104.883259 C142.756955,110.687897 138.320526,115.261699 132.564767,115.960784 C132.564767,115.960784 123.427319,117.388703 109.9803,117.388703 C96.5332817,117.388703 87.3958333,115.960784 87.3958333,115.960784 C81.6400745,115.261699 77.2036457,110.687897 76.5077353,104.883259 C76.5077353,104.883259 75.1159146,94.5234125 75.1159146,82.2113332 C75.1159146,69.8992538 76.5077353,59.5431254 76.5077353,59.5394069 C77.2036457,53.734769 81.6400745,49.1609673 87.3958333,48.4618821 C87.3958333,48.4618821 96.5332817,47.030245 109.9803,47.030245 C123.427319,47.030245 132.564767,48.4618821 132.564767,48.4618821 C138.320526,49.1609673 142.756955,53.734769 143.45649,59.5394069 C143.45649,59.5431254 144.84831,69.8992538 144.84831,82.2113332 C144.84831,94.5234125 143.45649,104.883259 143.45649,104.883259 Z M122.673789,88.1113469 C121.151485,88.3270221 119.661802,88.423704 117.88578,88.3902372 C116.167751,88.3530518 114.355485,88.1857176 112.749817,87.8882346 C112.749817,87.8882346 112.224259,87.7618043 112.224259,88.3270221 L112.224259,91.9823449 C112.224259,92.3170133 112.644705,92.424851 112.644705,92.424851 C114.406228,92.8896682 116.149629,93.1499659 117.874907,93.1871512 C119.498698,93.2168995 121.118864,93.0532839 122.735406,92.7000228 C122.735406,92.7000228 123.141354,92.5735925 123.141354,92.2128943 L123.141354,88.5984753 C123.141354,87.9291385 122.673789,88.1113469 122.673789,88.1113469 Z M101.031327,95.3173101 C101.031327,95.3173101 106.46813,95.3098262 106.46813,90.7063697 C106.46813,86.1028079 101.031327,86.0991186 101.031327,86.0991186 C101.031327,86.0991186 95.5909068,86.1028079 95.5909068,90.7063697 C95.5909068,95.3099316 101.031327,95.3173101 101.031327,95.3173101 Z M95.4531672,78.4559947 C97.341549,77.2586254 102.854464,74.2057057 110.009293,74.2057057 C117.160497,74.2057057 122.677037,77.2586254 124.565418,78.4559947 C124.565418,78.4559947 125.268578,78.9617158 125.268578,78.0209257 L125.268578,76.1505011 C125.268578,75.5852833 124.648783,74.9940358 124.648783,74.9940358 C122.785773,73.5252133 116.950274,69.4125102 110.009293,69.4087917 C103.068312,69.4125102 97.2364375,73.5252133 95.3698029,74.9940358 C95.3698029,74.9940358 94.7463832,75.5852833 94.7463832,76.1505011 L94.7463832,78.0209257 C94.7463832,78.9617158 95.4531672,78.4559947 95.4531672,78.4559947 Z" id="logo-telenet" transform="translate(109.982112, 82.209474) scale(-1, 1) rotate(-180.000000) translate(-109.982112, -82.209474) "></path>
                </g>
            </g>
        </g>
    </g>
</svg>